<?xml version="1.0" encoding="UTF-8"?>
<svg version="1.1" xmlns="http://www.w3.org/2000/svg" width="1780" height="228">
<path d="M0 0 C587.4 0 1174.8 0 1780 0 C1780 75.24 1780 150.48 1780 228 C1192.6 228 605.2 228 0 228 C0 152.76 0 77.52 0 0 Z " fill="#0A0A0C" transform="translate(0,0)"/>
<path d="M0 0 C9.9 0 19.8 0 30 0 C30 2.97 30 5.94 30 9 C33.3 9 36.6 9 40 9 C40 57.18 40 105.36 40 155 C18.88 155 -2.24 155 -24 155 C-24 149.06 -24 143.12 -24 137 C-25.32 137 -26.64 137 -28 137 C-28 133.7 -28 130.4 -28 127 C-31.3 127 -34.6 127 -38 127 C-38 121.06 -38 115.12 -38 109 C-39.65 109 -41.3 109 -43 109 C-43 105.7 -43 102.4 -43 99 C-45.97 99 -48.94 99 -52 99 C-52 93.06 -52 87.12 -52 81 C-53.65 81 -55.3 81 -57 81 C-57 78.03 -57 75.06 -57 72 C-57.99 72 -58.98 72 -60 72 C-60 99.39 -60 126.78 -60 155 C-71.55 155 -83.1 155 -95 155 C-95 149.06 -95 143.12 -95 137 C-96.65 137 -98.3 137 -100 137 C-100 128.75 -100 120.5 -100 112 C-90.1 112 -80.2 112 -70 112 C-70 120.25 -70 128.5 -70 137 C-76.27 137 -82.54 137 -89 137 C-89 140.96 -89 144.92 -89 149 C-81.74 149 -74.48 149 -67 149 C-67 121.28 -67 93.56 -67 65 C-63.7 65 -60.4 65 -57 65 C-57 62.03 -57 59.06 -57 56 C-47.1 56 -37.2 56 -27 56 C-27 58.97 -27 61.94 -27 65 C-23.7 65 -20.4 65 -17 65 C-17 70.61 -17 76.22 -17 82 C-17.99 82 -18.98 82 -20 82 C-20 77.05 -20 72.1 -20 67 C-22.31 67 -24.62 67 -27 67 C-27 67.66 -27 68.32 -27 69 C-25.02 69 -23.04 69 -21 69 C-21 73.29 -21 77.58 -21 82 C-21.99 82 -22.98 82 -24 82 C-24 78.7 -24 75.4 -24 72 C-24.99 72 -25.98 72 -27 72 C-27 74.97 -27 77.94 -27 81 C-33.27 81 -39.54 81 -46 81 C-46 84.96 -46 88.92 -46 93 C-45.01 93 -44.02 93 -43 93 C-43 90.03 -43 87.06 -43 84 C-33.1 84 -23.2 84 -13 84 C-13 86.97 -13 89.94 -13 93 C-9.7 93 -6.4 93 -3 93 C-3 98.61 -3 104.22 -3 110 C-3.99 110 -4.98 110 -6 110 C-6 105.05 -6 100.1 -6 95 C-8.31 95 -10.62 95 -13 95 C-13 95.66 -13 96.32 -13 97 C-11.02 97 -9.04 97 -7 97 C-7 101.29 -7 105.58 -7 110 C-7.66 110 -8.32 110 -9 110 C-9 106.37 -9 102.74 -9 99 C-10.32 99 -11.64 99 -13 99 C-13 102.3 -13 105.6 -13 109 C-19.27 109 -25.54 109 -32 109 C-32 112.96 -32 116.92 -32 121 C-30.68 121 -29.36 121 -28 121 C-28 118.03 -28 115.06 -28 112 C-8.86 112 10.28 112 30 112 C30 120.25 30 128.5 30 137 C14.16 137 -1.68 137 -18 137 C-18 140.96 -18 144.92 -18 149 C-0.84 149 16.32 149 34 149 C34 104.78 34 60.56 34 15 C32.68 15 31.36 15 30 15 C30 18.3 30 21.6 30 25 C20.1 25 10.2 25 0 25 C0 16.75 0 8.5 0 0 Z " fill="#F4F4F4" transform="translate(1577,19)"/>
<path d="M0 0 C38.28 0 76.56 0 116 0 C116 2.97 116 5.94 116 9 C119.3 9 122.6 9 126 9 C126 20.22 126 31.44 126 43 C111.81 43 97.62 43 83 43 C83 79.96 83 116.92 83 155 C71.45 155 59.9 155 48 155 C48 149.06 48 143.12 48 137 C46.35 137 44.7 137 43 137 C43 128.75 43 120.5 43 112 C52.9 112 62.8 112 73 112 C73 120.25 73 128.5 73 137 C66.73 137 60.46 137 54 137 C54 140.96 54 144.92 54 149 C61.59 149 69.18 149 77 149 C77 112.04 77 75.08 77 37 C91.19 37 105.38 37 120 37 C120 29.74 120 22.48 120 15 C118.68 15 117.36 15 116 15 C116 18.3 116 21.6 116 25 C81.35 25 46.7 25 11 25 C11 28.96 11 32.92 11 37 C21.56 37 32.12 37 43 37 C43 34.03 43 31.06 43 28 C52.9 28 62.8 28 73 28 C73 36.25 73 44.5 73 53 C63.1 53 53.2 53 43 53 C43 49.7 43 46.4 43 43 C30.46 43 17.92 43 5 43 C5 37.06 5 31.12 5 25 C3.35 25 1.7 25 0 25 C0 16.75 0 8.5 0 0 Z " fill="#F5F5F5" transform="translate(1620,19)"/>
<path d="M0 0 C14.52 0 29.04 0 44 0 C44 2.97 44 5.94 44 9 C47.3 9 50.6 9 54 9 C54 29.79 54 50.58 54 72 C49.38 72 44.76 72 40 72 C40 80.91 40 89.82 40 99 C9.31 99 -21.38 99 -53 99 C-53 93.06 -53 87.12 -53 81 C-54.32 81 -55.64 81 -57 81 C-57 77.7 -57 74.4 -57 71 C-60.3 71 -63.6 71 -67 71 C-67 65.06 -67 59.12 -67 53 C-68.65 53 -70.3 53 -72 53 C-72 44.75 -72 36.5 -72 28 C-62.1 28 -52.2 28 -42 28 C-42 36.25 -42 44.5 -42 53 C-48.27 53 -54.54 53 -61 53 C-61 56.96 -61 60.92 -61 65 C-59.68 65 -58.36 65 -57 65 C-57 62.03 -57 59.06 -57 56 C-28.29 56 0.42 56 30 56 C30 64.25 30 72.5 30 81 C4.59 81 -20.82 81 -47 81 C-47 84.96 -47 88.92 -47 93 C-20.6 93 5.8 93 33 93 C33 83.76 33 74.52 33 65 C37.95 65 42.9 65 48 65 C48 48.5 48 32 48 15 C46.68 15 45.36 15 44 15 C44 18.3 44 21.6 44 25 C29.48 25 14.96 25 0 25 C0 16.75 0 8.5 0 0 Z " fill="#F4F4F4" transform="translate(1305,75)"/>
<path d="M0 0 C10.56 0 21.12 0 32 0 C32 3.3 32 6.6 32 10 C41.9 10 51.8 10 62 10 C62 6.7 62 3.4 62 0 C62.99 0 63.98 0 65 0 C65 25.74 65 51.48 65 78 C60.38 78 55.76 78 51 78 C51 87.24 51 96.48 51 106 C24.6 106 -1.8 106 -29 106 C-29 102.04 -29 98.08 -29 94 C-3.59 94 21.82 94 48 94 C48 85.75 48 77.5 48 69 C30.84 69 13.68 69 -4 69 C-2.02 68.505 -2.02 68.505 0 68 C0 45.56 0 23.12 0 0 Z " fill="#0A0A0C" transform="translate(55,62)"/>
<path d="M0 0 C9.9 0 19.8 0 30 0 C30 8.25 30 16.5 30 25 C23.73 25 17.46 25 11 25 C11 28.96 11 32.92 11 37 C12.32 37 13.64 37 15 37 C15 34.03 15 31.06 15 28 C43.71 28 72.42 28 102 28 C102 30.97 102 33.94 102 37 C105.3 37 108.6 37 112 37 C112 48.22 112 59.44 112 71 C81.31 71 50.62 71 19 71 C19 65.06 19 59.12 19 53 C17.68 53 16.36 53 15 53 C15 49.7 15 46.4 15 43 C11.7 43 8.4 43 5 43 C5 37.06 5 31.12 5 25 C3.35 25 1.7 25 0 25 C0 16.75 0 8.5 0 0 Z " fill="#E9E9E9" transform="translate(488,103)"/>
<path d="M0 0 C9.9 0 19.8 0 30 0 C30 8.25 30 16.5 30 25 C23.73 25 17.46 25 11 25 C11 28.96 11 32.92 11 37 C11.99 37 12.98 37 14 37 C14 34.03 14 31.06 14 28 C43.04 28 72.08 28 102 28 C102 30.97 102 33.94 102 37 C104.97 37 107.94 37 111 37 C111 48.22 111 59.44 111 71 C80.64 71 50.28 71 19 71 C19 65.06 19 59.12 19 53 C17.68 53 16.36 53 15 53 C15 49.7 15 46.4 15 43 C11.7 43 8.4 43 5 43 C5 37.06 5 31.12 5 25 C3.35 25 1.7 25 0 25 C0 16.75 0 8.5 0 0 Z " fill="#E9E9E9" transform="translate(832,103)"/>
<path d="M0 0 C9.9 0 19.8 0 30 0 C30 2.97 30 5.94 30 9 C33.3 9 36.6 9 40 9 C40 38.7 40 68.4 40 99 C35.05 99 30.1 99 25 99 C25 108.24 25 117.48 25 127 C-5.36 127 -35.72 127 -67 127 C-67 121.06 -67 115.12 -67 109 C-68.65 109 -70.3 109 -72 109 C-72 100.75 -72 92.5 -72 84 C-42.96 84 -13.92 84 16 84 C16 92.25 16 100.5 16 109 C-9.41 109 -34.82 109 -61 109 C-61 112.96 -61 116.92 -61 121 C-34.6 121 -8.2 121 19 121 C19 111.76 19 102.52 19 93 C23.62 93 28.24 93 33 93 C33 67.26 33 41.52 33 15 C32.01 15 31.02 15 30 15 C30 18.3 30 21.6 30 25 C20.1 25 10.2 25 0 25 C0 21.7 0 18.4 0 15 C-10.56 15 -21.12 15 -32 15 C-32 37.11 -32 59.22 -32 82 C-32.66 82 -33.32 82 -34 82 C-34 59.23 -34 36.46 -34 13 C-22.78 13 -11.56 13 0 13 C0 12.34 0 11.68 0 11 C-11.88 11 -23.76 11 -36 11 C-36 34.43 -36 57.86 -36 82 C-36.66 82 -37.32 82 -38 82 C-38 57.91 -38 33.82 -38 9 C-25.46 9 -12.92 9 0 9 C0 6.03 0 3.06 0 0 Z " fill="#F3F3F3" transform="translate(87,47)"/>
<path d="M0 0 C33.66 0 67.32 0 102 0 C102 2.97 102 5.94 102 9 C105.3 9 108.6 9 112 9 C112 20.22 112 31.44 112 43 C76.69 43 41.38 43 5 43 C5 37.06 5 31.12 5 25 C3.35 25 1.7 25 0 25 C0 16.75 0 8.5 0 0 Z " fill="#E5E5E5" transform="translate(1362,131)"/>
<path d="M0 0 C33.66 0 67.32 0 102 0 C102 2.97 102 5.94 102 9 C105.3 9 108.6 9 112 9 C112 20.22 112 31.44 112 43 C76.69 43 41.38 43 5 43 C5 37.06 5 31.12 5 25 C3.35 25 1.7 25 0 25 C0 16.75 0 8.5 0 0 Z " fill="#E6E6E6" transform="translate(717,131)"/>
<path d="M0 0 C33.33 0 66.66 0 101 0 C101 2.97 101 5.94 101 9 C104.3 9 107.6 9 111 9 C111 20.22 111 31.44 111 43 C75.69 43 40.38 43 4 43 C4 37.06 4 31.12 4 25 C2.68 25 1.36 25 0 25 C0 16.75 0 8.5 0 0 Z " fill="#E7E7E7" transform="translate(288,131)"/>
<path d="M0 0 C9.9 0 19.8 0 30 0 C30 2.97 30 5.94 30 9 C33.3 9 36.6 9 40 9 C40 14.61 40 20.22 40 26 C39.01 26 38.02 26 37 26 C37 21.05 37 16.1 37 11 C34.69 11 32.38 11 30 11 C30 11.66 30 12.32 30 13 C31.98 13 33.96 13 36 13 C36 17.29 36 21.58 36 26 C35.34 26 34.68 26 34 26 C34 22.37 34 18.74 34 15 C32.68 15 31.36 15 30 15 C30 18.3 30 21.6 30 25 C23.73 25 17.46 25 11 25 C11 28.96 11 32.92 11 37 C12.32 37 13.64 37 15 37 C15 34.03 15 31.06 15 28 C24.57 28 34.14 28 44 28 C44 30.97 44 33.94 44 37 C47.3 37 50.6 37 54 37 C54 42.61 54 48.22 54 54 C53.34 54 52.68 54 52 54 C52 49.05 52 44.1 52 39 C49.36 39 46.72 39 44 39 C44 39.66 44 40.32 44 41 C45.98 41 47.96 41 50 41 C50 45.29 50 49.58 50 54 C49.34 54 48.68 54 48 54 C48 50.37 48 46.74 48 43 C46.68 43 45.36 43 44 43 C44 46.3 44 49.6 44 53 C38.06 53 32.12 53 26 53 C26 56.96 26 60.92 26 65 C26.99 65 27.98 65 29 65 C29 62.03 29 59.06 29 56 C48.14 56 67.28 56 87 56 C87 64.25 87 72.5 87 81 C71.49 81 55.98 81 40 81 C40 84.96 40 88.92 40 93 C40.99 93 41.98 93 43 93 C43 90.03 43 87.06 43 84 C52.9 84 62.8 84 73 84 C73 92.25 73 100.5 73 109 C63.43 109 53.86 109 44 109 C44 105.7 44 102.4 44 99 C40.7 99 37.4 99 34 99 C34 93.06 34 87.12 34 81 C32.35 81 30.7 81 29 81 C29 77.7 29 74.4 29 71 C25.7 71 22.4 71 19 71 C19 65.06 19 59.12 19 53 C17.68 53 16.36 53 15 53 C15 49.7 15 46.4 15 43 C11.7 43 8.4 43 5 43 C5 37.06 5 31.12 5 25 C3.35 25 1.7 25 0 25 C0 16.75 0 8.5 0 0 Z " fill="#F5F5F5" transform="translate(359,19)"/>
<path d="M0 0 C33.66 0 67.32 0 102 0 C102 2.97 102 5.94 102 9 C105.3 9 108.6 9 112 9 C112 20.22 112 31.44 112 43 C88.24 43 64.48 43 40 43 C40 46.63 40 50.26 40 54 C39.01 54 38.02 54 37 54 C37 49.71 37 45.42 37 41 C60.76 41 84.52 41 109 41 C109 31.1 109 21.2 109 11 C106.69 11 104.38 11 102 11 C102 11.66 102 12.32 102 13 C103.98 13 105.96 13 108 13 C108 21.58 108 30.16 108 39 C84.24 39 60.48 39 36 39 C36 43.95 36 48.9 36 54 C35.34 54 34.68 54 34 54 C34 48.39 34 42.78 34 37 C57.43 37 80.86 37 105 37 C105 29.74 105 22.48 105 15 C104.01 15 103.02 15 102 15 C102 18.3 102 21.6 102 25 C68.34 25 34.68 25 0 25 C0 16.75 0 8.5 0 0 Z " fill="#F5F5F5" transform="translate(1362,19)"/>
<path d="M0 0 C33.66 0 67.32 0 102 0 C102 2.97 102 5.94 102 9 C105.3 9 108.6 9 112 9 C112 20.22 112 31.44 112 43 C88.24 43 64.48 43 40 43 C40 46.63 40 50.26 40 54 C39.34 54 38.68 54 38 54 C38 49.71 38 45.42 38 41 C61.43 41 84.86 41 109 41 C109 31.1 109 21.2 109 11 C106.69 11 104.38 11 102 11 C102 11.66 102 12.32 102 13 C103.98 13 105.96 13 108 13 C108 21.58 108 30.16 108 39 C84.24 39 60.48 39 36 39 C36 43.95 36 48.9 36 54 C35.34 54 34.68 54 34 54 C34 48.39 34 42.78 34 37 C57.76 37 81.52 37 106 37 C106 29.74 106 22.48 106 15 C104.68 15 103.36 15 102 15 C102 18.3 102 21.6 102 25 C68.34 25 34.68 25 0 25 C0 16.75 0 8.5 0 0 Z " fill="#F5F5F5" transform="translate(717,19)"/>
<path d="M0 0 C28.71 0 57.42 0 87 0 C87 2.97 87 5.94 87 9 C90.3 9 93.6 9 97 9 C97 20.22 97 31.44 97 43 C73.24 43 49.48 43 25 43 C25 65.11 25 87.22 25 110 C24.01 110 23.02 110 22 110 C22 87.23 22 64.46 22 41 C45.76 41 69.52 41 94 41 C94 31.1 94 21.2 94 11 C91.69 11 89.38 11 87 11 C87 11.66 87 12.32 87 13 C88.98 13 90.96 13 93 13 C93 21.58 93 30.16 93 39 C69.24 39 45.48 39 21 39 C21 62.43 21 85.86 21 110 C20.34 110 19.68 110 19 110 C19 85.91 19 61.82 19 37 C42.43 37 65.86 37 90 37 C90 30.07 90 23.14 90 16 C89.01 16 88.02 16 87 16 C87 18.97 87 21.94 87 25 C58.29 25 29.58 25 0 25 C0 16.75 0 8.5 0 0 Z " fill="#F5F5F5" transform="translate(503,19)"/>
<path d="M0 0 C28.71 0 57.42 0 87 0 C87 2.97 87 5.94 87 9 C90.3 9 93.6 9 97 9 C97 20.22 97 31.44 97 43 C73.24 43 49.48 43 25 43 C25 65.11 25 87.22 25 110 C24.01 110 23.02 110 22 110 C22 87.23 22 64.46 22 41 C45.76 41 69.52 41 94 41 C94 31.1 94 21.2 94 11 C91.69 11 89.38 11 87 11 C87 11.66 87 12.32 87 13 C88.98 13 90.96 13 93 13 C93 21.58 93 30.16 93 39 C69.24 39 45.48 39 21 39 C21 62.43 21 85.86 21 110 C20.34 110 19.68 110 19 110 C19 85.91 19 61.82 19 37 C42.43 37 65.86 37 90 37 C90 29.74 90 22.48 90 15 C89.01 15 88.02 15 87 15 C87 18.3 87 21.6 87 25 C58.29 25 29.58 25 0 25 C0 16.75 0 8.5 0 0 Z " fill="#F6F6F6" transform="translate(1248,19)"/>
<path d="M0 0 C29.04 0 58.08 0 88 0 C88 2.97 88 5.94 88 9 C90.97 9 93.94 9 97 9 C97 20.22 97 31.44 97 43 C73.57 43 50.14 43 26 43 C26 65.11 26 87.22 26 110 C25.01 110 24.02 110 23 110 C23 87.23 23 64.46 23 41 C46.76 41 70.52 41 95 41 C95 31.1 95 21.2 95 11 C92.69 11 90.38 11 88 11 C88 11.66 88 12.32 88 13 C89.98 13 91.96 13 94 13 C94 21.58 94 30.16 94 39 C70.24 39 46.48 39 22 39 C22 62.43 22 85.86 22 110 C21.34 110 20.68 110 20 110 C20 85.91 20 61.82 20 37 C43.43 37 66.86 37 91 37 C91 30.07 91 23.14 91 16 C90.01 16 89.02 16 88 16 C88 18.97 88 21.94 88 25 C58.96 25 29.92 25 0 25 C0 16.75 0 8.5 0 0 Z " fill="#F4F4F4" transform="translate(846,19)"/>
<path d="M0 0 C9.9 0 19.8 0 30 0 C30 2.97 30 5.94 30 9 C33.3 9 36.6 9 40 9 C40 20.55 40 32.1 40 44 C35.38 44 30.76 44 26 44 C26 52.91 26 61.82 26 71 C21.05 71 16.1 71 11 71 C11 80.24 11 89.48 11 99 C6.38 99 1.76 99 -3 99 C-3 117.48 -3 135.96 -3 155 C-14.55 155 -26.1 155 -38 155 C-38 149.06 -38 143.12 -38 137 C-39.65 137 -41.3 137 -43 137 C-43 128.75 -43 120.5 -43 112 C-33.1 112 -23.2 112 -13 112 C-13 120.25 -13 128.5 -13 137 C-19.27 137 -25.54 137 -32 137 C-32 140.96 -32 144.92 -32 149 C-24.41 149 -16.82 149 -9 149 C-9 130.52 -9 112.04 -9 93 C-4.38 93 0.24 93 5 93 C5 83.76 5 74.52 5 65 C9.62 65 14.24 65 19 65 C19 55.76 19 46.52 19 37 C23.62 37 28.24 37 33 37 C33 30.07 33 23.14 33 16 C32.01 16 31.02 16 30 16 C30 18.97 30 21.94 30 25 C20.1 25 10.2 25 0 25 C0 16.75 0 8.5 0 0 Z " fill="#F4F4F4" transform="translate(445,19)"/>
<path d="M0 0 C9.9 0 19.8 0 30 0 C30 2.97 30 5.94 30 9 C33.3 9 36.6 9 40 9 C40 47.94 40 86.88 40 127 C28.45 127 16.9 127 5 127 C5 121.06 5 115.12 5 109 C3.35 109 1.7 109 0 109 C0 100.75 0 92.5 0 84 C9.9 84 19.8 84 30 84 C30 92.25 30 100.5 30 109 C23.73 109 17.46 109 11 109 C11 112.96 11 116.92 11 121 C18.59 121 26.18 121 34 121 C34 86.02 34 51.04 34 15 C32.68 15 31.36 15 30 15 C30 18.3 30 21.6 30 25 C20.43 25 10.86 25 1 25 C1 21.7 1 18.4 1 15 C-9.89 15 -20.78 15 -32 15 C-32 18.63 -32 22.26 -32 26 C-32.66 26 -33.32 26 -34 26 C-34 21.71 -34 17.42 -34 13 C-22.45 13 -10.9 13 1 13 C1 12.34 1 11.68 1 11 C-11.21 11 -23.42 11 -36 11 C-36 15.95 -36 20.9 -36 26 C-36.66 26 -37.32 26 -38 26 C-38 20.39 -38 14.78 -38 9 C-25.46 9 -12.92 9 0 9 C0 6.03 0 3.06 0 0 Z " fill="#F1F1F1" transform="translate(1190,47)"/>
<path d="M0 0 C9.9 0 19.8 0 30 0 C30 2.97 30 5.94 30 9 C33.3 9 36.6 9 40 9 C40 57.18 40 105.36 40 155 C28.45 155 16.9 155 5 155 C5 149.06 5 143.12 5 137 C3.35 137 1.7 137 0 137 C0 128.75 0 120.5 0 112 C9.9 112 19.8 112 30 112 C30 120.25 30 128.5 30 137 C23.73 137 17.46 137 11 137 C11 140.96 11 144.92 11 149 C18.59 149 26.18 149 34 149 C34 104.78 34 60.56 34 15 C32.68 15 31.36 15 30 15 C30 18.3 30 21.6 30 25 C20.1 25 10.2 25 0 25 C0 16.75 0 8.5 0 0 Z " fill="#F3F3F3" transform="translate(674,19)"/>
<path d="M0 0 C9.57 0 19.14 0 29 0 C29 2.97 29 5.94 29 9 C32.3 9 35.6 9 39 9 C39 47.94 39 86.88 39 127 C27.45 127 15.9 127 4 127 C4 121.06 4 115.12 4 109 C2.68 109 1.36 109 0 109 C0 100.75 0 92.5 0 84 C9.57 84 19.14 84 29 84 C29 92.25 29 100.5 29 109 C22.73 109 16.46 109 10 109 C10 112.96 10 116.92 10 121 C17.59 121 25.18 121 33 121 C33 86.02 33 51.04 33 15 C31.68 15 30.36 15 29 15 C29 18.3 29 21.6 29 25 C19.43 25 9.86 25 0 25 C0 21.7 0 18.4 0 15 C-10.89 15 -21.78 15 -33 15 C-33 18.63 -33 22.26 -33 26 C-33.66 26 -34.32 26 -35 26 C-35 21.71 -35 17.42 -35 13 C-23.45 13 -11.9 13 0 13 C0 12.34 0 11.68 0 11 C-11.88 11 -23.76 11 -36 11 C-36 15.95 -36 20.9 -36 26 C-36.99 26 -37.98 26 -39 26 C-39 20.39 -39 14.78 -39 9 C-26.13 9 -13.26 9 0 9 C0 6.03 0 3.06 0 0 Z " fill="#F4F4F4" transform="translate(202,47)"/>
<path d="M0 0 C9.57 0 19.14 0 29 0 C29 2.97 29 5.94 29 9 C32.3 9 35.6 9 39 9 C39 57.18 39 105.36 39 155 C27.45 155 15.9 155 4 155 C4 149.06 4 143.12 4 137 C2.68 137 1.36 137 0 137 C0 128.75 0 120.5 0 112 C9.57 112 19.14 112 29 112 C29 120.25 29 128.5 29 137 C22.73 137 16.46 137 10 137 C10 140.96 10 144.92 10 149 C17.59 149 25.18 149 33 149 C33 104.78 33 60.56 33 15 C31.68 15 30.36 15 29 15 C29 18.3 29 21.6 29 25 C19.43 25 9.86 25 0 25 C0 16.75 0 8.5 0 0 Z " fill="#F5F5F5" transform="translate(245,19)"/>
<path d="M0 0 C9.9 0 19.8 0 30 0 C30 2.97 30 5.94 30 9 C33.3 9 36.6 9 40 9 C40 14.61 40 20.22 40 26 C39.01 26 38.02 26 37 26 C37 21.05 37 16.1 37 11 C34.69 11 32.38 11 30 11 C30 11.66 30 12.32 30 13 C31.98 13 33.96 13 36 13 C36 17.29 36 21.58 36 26 C35.01 26 34.02 26 33 26 C33 22.7 33 19.4 33 16 C32.01 16 31.02 16 30 16 C30 18.97 30 21.94 30 25 C23.73 25 17.46 25 11 25 C11.04125 26.93875 11.0825 28.8775 11.125 30.875 C11.1953125 34.1796875 11.1953125 34.1796875 11 37 C10.34 37.66 9.68 38.32 9 39 C10.65 39 12.3 39 14 39 C14 39.66 14 40.32 14 41 C11.69 41 9.38 41 7 41 C5.58365167 38.16730334 5.6536995 35.52533562 5.4375 32.375 C5.35371094 31.18648437 5.26992187 29.99796875 5.18359375 28.7734375 C5.12300781 27.85820313 5.06242187 26.94296875 5 26 C3.35 25.67 1.7 25.34 0 25 C0 22.03 0 19.06 0 16 C-0.99 16 -1.98 16 -3 16 C-3 43.39 -3 70.78 -3 99 C-14.55 99 -26.1 99 -38 99 C-38 93.06 -38 87.12 -38 81 C-39.65 81 -41.3 81 -43 81 C-43 72.75 -43 64.5 -43 56 C-33.1 56 -23.2 56 -13 56 C-13 64.25 -13 72.5 -13 81 C-19.27 81 -25.54 81 -32 81 C-32 84.96 -32 88.92 -32 93 C-24.74 93 -17.48 93 -10 93 C-10 65.28 -10 37.56 -10 9 C-6.7 9 -3.4 9 0 9 C0 6.03 0 3.06 0 0 Z " fill="#E1E1E1" transform="translate(1520,75)"/>
<path d="M0 0 C33.33 0 66.66 0 101 0 C101 8.25 101 16.5 101 25 C67.67 25 34.34 25 0 25 C0 16.75 0 8.5 0 0 Z " fill="#F6F6F6" transform="translate(1119,75)"/>
<path d="M0 0 C33.33 0 66.66 0 101 0 C101 8.25 101 16.5 101 25 C67.67 25 34.34 25 0 25 C0 16.75 0 8.5 0 0 Z " fill="#F6F6F6" transform="translate(603,75)"/>
<path d="M0 0 C33.33 0 66.66 0 101 0 C101 8.25 101 16.5 101 25 C67.67 25 34.34 25 0 25 C0 16.75 0 8.5 0 0 Z " fill="#F5F5F5" transform="translate(130,75)"/>
<path d="M0 0 C9.9 0 19.8 0 30 0 C30 2.97 30 5.94 30 9 C33.3 9 36.6 9 40 9 C40 14.61 40 20.22 40 26 C39.01 26 38.02 26 37 26 C37 21.05 37 16.1 37 11 C34.69 11 32.38 11 30 11 C30 11.66 30 12.32 30 13 C31.98 13 33.96 13 36 13 C36 17.29 36 21.58 36 26 C35.01 26 34.02 26 33 26 C33 22.37 33 18.74 33 15 C32.01 15 31.02 15 30 15 C30 18.3 30 21.6 30 25 C20.1 25 10.2 25 0 25 C0 21.7 0 18.4 0 15 C-5.94 15 -11.88 15 -18 15 C-18 33.48 -18 51.96 -18 71 C-29.55 71 -41.1 71 -53 71 C-53 65.06 -53 59.12 -53 53 C-54.32 53 -55.64 53 -57 53 C-57 44.75 -57 36.5 -57 28 C-47.1 28 -37.2 28 -27 28 C-27 36.25 -27 44.5 -27 53 C-33.6 53 -40.2 53 -47 53 C-47 56.96 -47 60.92 -47 65 C-39.41 65 -31.82 65 -24 65 C-24 46.52 -24 28.04 -24 9 C-16.08 9 -8.16 9 0 9 C0 6.03 0 3.06 0 0 Z " fill="#F1F1F1" transform="translate(1004,103)"/>
<path d="M0 0 C9.9 0 19.8 0 30 0 C30 8.25 30 16.5 30 25 C20.43 25 10.86 25 1 25 C1 21.7 1 18.4 1 15 C-9.89 15 -20.78 15 -32 15 C-32 33.48 -32 51.96 -32 71 C-43.55 71 -55.1 71 -67 71 C-67 65.06 -67 59.12 -67 53 C-68.32 53 -69.64 53 -71 53 C-71 44.75 -71 36.5 -71 28 C-61.1 28 -51.2 28 -41 28 C-41 36.25 -41 44.5 -41 53 C-47.6 53 -54.2 53 -61 53 C-61 56.96 -61 60.92 -61 65 C-53.41 65 -45.82 65 -38 65 C-38 46.52 -38 28.04 -38 9 C-25.46 9 -12.92 9 0 9 C0 6.03 0 3.06 0 0 Z " fill="#F3F3F3" transform="translate(1190,103)"/>
<path d="M0 0 C9.9 0 19.8 0 30 0 C30 8.25 30 16.5 30 25 C20.43 25 10.86 25 1 25 C1 21.7 1 18.4 1 15 C-9.89 15 -20.78 15 -32 15 C-32 33.48 -32 51.96 -32 71 C-43.22 71 -54.44 71 -66 71 C-66 65.06 -66 59.12 -66 53 C-67.65 53 -69.3 53 -71 53 C-71 44.75 -71 36.5 -71 28 C-61.1 28 -51.2 28 -41 28 C-41 36.25 -41 44.5 -41 53 C-47.27 53 -53.54 53 -60 53 C-60 56.96 -60 60.92 -60 65 C-52.74 65 -45.48 65 -38 65 C-38 46.52 -38 28.04 -38 9 C-25.46 9 -12.92 9 0 9 C0 6.03 0 3.06 0 0 Z " fill="#CCCCCD" transform="translate(674,103)"/>
<path d="M0 0 C9.57 0 19.14 0 29 0 C29 8.25 29 16.5 29 25 C19.43 25 9.86 25 0 25 C0 21.7 0 18.4 0 15 C-10.89 15 -21.78 15 -33 15 C-33 33.48 -33 51.96 -33 71 C-44.22 71 -55.44 71 -67 71 C-67 65.06 -67 59.12 -67 53 C-68.65 53 -70.3 53 -72 53 C-72 44.75 -72 36.5 -72 28 C-62.1 28 -52.2 28 -42 28 C-42 36.25 -42 44.5 -42 53 C-48.27 53 -54.54 53 -61 53 C-61 56.96 -61 60.92 -61 65 C-53.74 65 -46.48 65 -39 65 C-39 46.52 -39 28.04 -39 9 C-26.13 9 -13.26 9 0 9 C0 6.03 0 3.06 0 0 Z " fill="#F4F4F4" transform="translate(202,103)"/>
<path d="M0 0 C29.04 0 58.08 0 88 0 C88 2.97 88 5.94 88 9 C90.97 9 93.94 9 97 9 C97 14.61 97 20.22 97 26 C96.34 26 95.68 26 95 26 C95 21.05 95 16.1 95 11 C92.69 11 90.38 11 88 11 C88 11.66 88 12.32 88 13 C89.65 13 91.3 13 93 13 C93 17.29 93 21.58 93 26 C92.34 26 91.68 26 91 26 C91 22.7 91 19.4 91 16 C90.01 16 89.02 16 88 16 C88 18.97 88 21.94 88 25 C58.96 25 29.92 25 0 25 C0 16.75 0 8.5 0 0 Z " fill="#F4F4F4" transform="translate(15,19)"/>
<path d="M0 0 C24.09 0 48.18 0 73 0 C73 2.97 73 5.94 73 9 C76.3 9 79.6 9 83 9 C83 20.22 83 31.44 83 43 C68.81 43 54.62 43 40 43 C40 46.63 40 50.26 40 54 C39.01 54 38.02 54 37 54 C37 49.71 37 45.42 37 41 C51.19 41 65.38 41 80 41 C80 31.1 80 21.2 80 11 C77.69 11 75.38 11 73 11 C73 11.66 73 12.32 73 13 C74.98 13 76.96 13 79 13 C79 21.58 79 30.16 79 39 C64.81 39 50.62 39 36 39 C36 43.95 36 48.9 36 54 C35.34 54 34.68 54 34 54 C34 48.39 34 42.78 34 37 C48.19 37 62.38 37 77 37 C77 29.74 77 22.48 77 15 C75.68 15 74.36 15 73 15 C73 18.3 73 21.6 73 25 C48.91 25 24.82 25 0 25 C0 16.75 0 8.5 0 0 Z " fill="#F4F4F4" transform="translate(1362,75)"/>
<path d="M0 0 C24.09 0 48.18 0 73 0 C73 2.97 73 5.94 73 9 C76.3 9 79.6 9 83 9 C83 20.22 83 31.44 83 43 C68.81 43 54.62 43 40 43 C40 46.63 40 50.26 40 54 C39.34 54 38.68 54 38 54 C38 49.71 38 45.42 38 41 C52.19 41 66.38 41 81 41 C81 31.1 81 21.2 81 11 C78.36 11 75.72 11 73 11 C73 11.66 73 12.32 73 13 C74.98 13 76.96 13 79 13 C79 21.58 79 30.16 79 39 C64.81 39 50.62 39 36 39 C36 43.95 36 48.9 36 54 C35.34 54 34.68 54 34 54 C34 48.39 34 42.78 34 37 C48.19 37 62.38 37 77 37 C77 29.74 77 22.48 77 15 C75.68 15 74.36 15 73 15 C73 18.3 73 21.6 73 25 C48.91 25 24.82 25 0 25 C0 16.75 0 8.5 0 0 Z " fill="#F5F5F5" transform="translate(717,75)"/>
<path d="M0 0 C14.52 0 29.04 0 44 0 C44 2.97 44 5.94 44 9 C47.3 9 50.6 9 54 9 C54 29.79 54 50.58 54 72 C49.38 72 44.76 72 40 72 C40 80.91 40 89.82 40 99 C39.67 99 39.34 99 39 99 C39 89.76 39 80.52 39 71 C43.62 71 48.24 71 53 71 C52.67 70.34 52.34 69.68 52 69 C47.05 69 42.1 69 37 69 C37 78.24 37 87.48 37 97 C8.29 97 -20.42 97 -50 97 C-50 91.72 -50 86.44 -50 81 C-49.01 81.33 -48.02 81.66 -47 82 C-47 85.63 -47 89.26 -47 93 C-20.6 93 5.8 93 33 93 C33 83.76 33 74.52 33 65 C37.95 65 42.9 65 48 65 C48 48.5 48 32 48 15 C46.68 15 45.36 15 44 15 C44 18.3 44 21.6 44 25 C29.48 25 14.96 25 0 25 C0 16.75 0 8.5 0 0 Z " fill="#D1D1D2" transform="translate(1305,75)"/>
<path d="M0 0 C24.09 0 48.18 0 73 0 C73 2.97 73 5.94 73 9 C76.3 9 79.6 9 83 9 C83 14.61 83 20.22 83 26 C82.01 26 81.02 26 80 26 C80 21.05 80 16.1 80 11 C77.69 11 75.38 11 73 11 C73 11.66 73 12.32 73 13 C74.98 13 76.96 13 79 13 C79 17.29 79 21.58 79 26 C78.01 26 77.02 26 76 26 C76 22.37 76 18.74 76 15 C75.01 15 74.02 15 73 15 C73 18.3 73 21.6 73 25 C48.91 25 24.82 25 0 25 C0 16.75 0 8.5 0 0 Z " fill="#F3F3F3" transform="translate(1133,19)"/>
<path d="M0 0 C24.09 0 48.18 0 73 0 C73 2.97 73 5.94 73 9 C76.3 9 79.6 9 83 9 C83 14.61 83 20.22 83 26 C82.01 26 81.02 26 80 26 C80 21.05 80 16.1 80 11 C77.69 11 75.38 11 73 11 C73 11.66 73 12.32 73 13 C74.98 13 76.96 13 79 13 C79 17.29 79 21.58 79 26 C78.34 26 77.68 26 77 26 C77 22.37 77 18.74 77 15 C75.68 15 74.36 15 73 15 C73 18.3 73 21.6 73 25 C48.91 25 24.82 25 0 25 C0 16.75 0 8.5 0 0 Z " fill="#F3F3F4" transform="translate(144,19)"/>
<path d="M0 0 C9.9 0 19.8 0 30 0 C30 2.97 30 5.94 30 9 C33.3 9 36.6 9 40 9 C40 14.61 40 20.22 40 26 C39.01 26 38.02 26 37 26 C37 21.05 37 16.1 37 11 C34.69 11 32.38 11 30 11 C30 11.66 30 12.32 30 13 C31.98 13 33.96 13 36 13 C36 17.29 36 21.58 36 26 C35.34 26 34.68 26 34 26 C34 22.37 34 18.74 34 15 C32.68 15 31.36 15 30 15 C30 18.3 30 21.6 30 25 C23.73 25 17.46 25 11 25 C11 28.96 11 32.92 11 37 C12.32 37 13.64 37 15 37 C15 34.03 15 31.06 15 28 C24.57 28 34.14 28 44 28 C44 30.97 44 33.94 44 37 C47.3 37 50.6 37 54 37 C54 42.61 54 48.22 54 54 C53.34 54 52.68 54 52 54 C52 49.05 52 44.1 52 39 C49.36 39 46.72 39 44 39 C44 39.66 44 40.32 44 41 C45.98 41 47.96 41 50 41 C50 45.29 50 49.58 50 54 C49.34 54 48.68 54 48 54 C48 50.37 48 46.74 48 43 C46.68 43 45.36 43 44 43 C44 46.3 44 49.6 44 53 C38.06 53 32.12 53 26 53 C26 56.96 26 60.92 26 65 C25.34 65 24.68 65 24 65 C24 65.66 24 66.32 24 67 C25.65 67 27.3 67 29 67 C29 67.66 29 68.32 29 69 C27.72125 68.95875 26.4425 68.9175 25.125 68.875 C22.98128508 68.75787127 22.98128508 68.75787127 21 69 C20.01 69.99 20.01 69.99 19 71 C19 65.06 19 59.12 19 53 C17.68 53 16.36 53 15 53 C15 49.7 15 46.4 15 43 C11.7 43 8.4 43 5 43 C5 37.06 5 31.12 5 25 C3.35 25 1.7 25 0 25 C0 16.75 0 8.5 0 0 Z " fill="#EEEEEE" transform="translate(359,19)"/>
<path d="M0 0 C24.09 0 48.18 0 73 0 C73 8.25 73 16.5 73 25 C48.91 25 24.82 25 0 25 C0 16.75 0 8.5 0 0 Z " fill="#F5F5F5" transform="translate(947,75)"/>
<path d="M0 0 C9.9 0 19.8 0 30 0 C30 2.97 30 5.94 30 9 C33.3 9 36.6 9 40 9 C40 38.7 40 68.4 40 99 C39.34 98.34 38.68 97.68 38 97 C35.41048555 96.85452166 32.95814609 96.81350948 30.375 96.875 C27.94125 96.91625 25.5075 96.9575 23 97 C23 106.24 23 115.48 23 125 C-5.71 125 -34.42 125 -64 125 C-64 119.72 -64 114.44 -64 109 C-63.67 109 -63.34 109 -63 109 C-63 113.62 -63 118.24 -63 123 C-34.95 123 -6.9 123 22 123 C22 114.09 22 105.18 22 96 C26.29 95.67 30.58 95.34 35 95 C35 68.93 35 42.86 35 16 C33.35 15.67 31.7 15.34 30 15 C30 18.3 30 21.6 30 25 C20.1 25 10.2 25 0 25 C0 21.7 0 18.4 0 15 C-10.56 15 -21.12 15 -32 15 C-32 37.11 -32 59.22 -32 82 C-32.66 82 -33.32 82 -34 82 C-34 59.23 -34 36.46 -34 13 C-22.78 13 -11.56 13 0 13 C0 12.34 0 11.68 0 11 C-11.88 11 -23.76 11 -36 11 C-36 34.43 -36 57.86 -36 82 C-36.66 82 -37.32 82 -38 82 C-38 57.91 -38 33.82 -38 9 C-25.46 9 -12.92 9 0 9 C0 6.03 0 3.06 0 0 Z " fill="#CACACA" transform="translate(87,47)"/>
<path d="M0 0 C9.9 0 19.8 0 30 0 C30 2.97 30 5.94 30 9 C33.3 9 36.6 9 40 9 C40 20.22 40 31.44 40 43 C28.45 43 16.9 43 5 43 C5 37.06 5 31.12 5 25 C3.35 25 1.7 25 0 25 C0 16.75 0 8.5 0 0 Z " fill="#F2F2F2" transform="translate(1018,131)"/>
<path d="M0 0 C19.14 0 38.28 0 58 0 C58 2.97 58 5.94 58 9 C61.3 9 64.6 9 68 9 C68 14.61 68 20.22 68 26 C67.34 26 66.68 26 66 26 C66 21.05 66 16.1 66 11 C63.36 11 60.72 11 58 11 C58 11.66 58 12.32 58 13 C59.98 13 61.96 13 64 13 C64 17.29 64 21.58 64 26 C63.34 26 62.68 26 62 26 C62 22.37 62 18.74 62 15 C60.68 15 59.36 15 58 15 C58 18.3 58 21.6 58 25 C38.86 25 19.72 25 0 25 C0 16.75 0 8.5 0 0 Z " fill="#F6F6F6" transform="translate(1477,47)"/>
<path d="M0 0 C9.57 0 19.14 0 29 0 C29 2.97 29 5.94 29 9 C32.3 9 35.6 9 39 9 C39 42.33 39 75.66 39 110 C38.34 110 37.68 110 37 110 C37 77.33 37 44.66 37 11 C34.36 11 31.72 11 29 11 C29 11.66 29 12.32 29 13 C31.31 13 33.62 13 36 13 C36 45.01 36 77.02 36 110 C35.01 110 34.02 110 33 110 C33 78.65 33 47.3 33 15 C31.68 15 30.36 15 29 15 C29 18.3 29 21.6 29 25 C19.43 25 9.86 25 0 25 C0 16.75 0 8.5 0 0 Z " fill="#F6F6F6" transform="translate(288,19)"/>
<path d="M0 0 C0.495 1.485 0.495 1.485 1 3 C-12.86 3 -26.72 3 -41 3 C-41 39.96 -41 76.92 -41 115 C-49.91 115 -58.82 115 -68 115 C-68 110.38 -68 105.76 -68 101 C-68.66 101 -69.32 101 -70 101 C-70 106.28 -70 111.56 -70 117 C-59.44 116.67 -48.88 116.34 -38 116 C-38 116.99 -38 117.98 -38 119 C-49.22 119 -60.44 119 -72 119 C-72 113.06 -72 107.12 -72 101 C-73.65 101 -75.3 101 -77 101 C-77 92.75 -77 84.5 -77 76 C-67.1 76 -57.2 76 -47 76 C-47 84.25 -47 92.5 -47 101 C-53.27 101 -59.54 101 -66 101 C-66 104.96 -66 108.92 -66 113 C-58.41 113 -50.82 113 -43 113 C-43 76.04 -43 39.08 -43 1 C-28.81 0.67 -14.62 0.34 0 0 Z " fill="#F5F5F5" transform="translate(1740,55)"/>
<path d="M0 0 C9.9 0 19.8 0 30 0 C30 2.97 30 5.94 30 9 C33.3 9 36.6 9 40 9 C40 20.22 40 31.44 40 43 C35.05 43 30.1 43 25 43 C25 52.24 25 61.48 25 71 C20.38 71 15.76 71 11 71 C11 74.63 11 78.26 11 82 C10.34 82 9.68 82 9 82 C9 77.71 9 73.42 9 69 C13.62 69 18.24 69 23 69 C23 59.76 23 50.52 23 41 C27.95 41 32.9 41 38 41 C38 31.1 38 21.2 38 11 C35.36 11 32.72 11 30 11 C30 11.66 30 12.32 30 13 C31.98 13 33.96 13 36 13 C36 21.58 36 30.16 36 39 C31.38 39 26.76 39 22 39 C22 48.24 22 57.48 22 67 C17.05 67 12.1 67 7 67 C7 71.95 7 76.9 7 82 C6.34 82 5.68 82 5 82 C5 76.39 5 70.78 5 65 C9.62 65 14.24 65 19 65 C19 55.76 19 46.52 19 37 C23.95 37 28.9 37 34 37 C34 29.74 34 22.48 34 15 C32.68 15 31.36 15 30 15 C30 18.3 30 21.6 30 25 C20.1 25 10.2 25 0 25 C0 16.75 0 8.5 0 0 Z " fill="#F3F3F3" transform="translate(1018,19)"/>
<path d="M0 0 C14.52 0 29.04 0 44 0 C44 2.97 44 5.94 44 9 C47.3 9 50.6 9 54 9 C54 14.61 54 20.22 54 26 C53.01 26 52.02 26 51 26 C51 21.05 51 16.1 51 11 C48.69 11 46.38 11 44 11 C44 11.66 44 12.32 44 13 C45.98 13 47.96 13 50 13 C50 17.29 50 21.58 50 26 C49.34 26 48.68 26 48 26 C48 22.37 48 18.74 48 15 C46.68 15 45.36 15 44 15 C44 18.3 44 21.6 44 25 C29.48 25 14.96 25 0 25 C0 16.75 0 8.5 0 0 Z " fill="#F4F4F4" transform="translate(1477,19)"/>
<path d="M0 0 C1.32 0 2.64 0 4 0 C4 7.26 4 14.52 4 22 C-27.35 22 -58.7 22 -91 22 C-91 18.04 -91 14.08 -91 10 C-60.97 10 -30.94 10 0 10 C0 6.7 0 3.4 0 0 Z " fill="#0C0C0E" transform="translate(819,146)"/>
<path d="M0 0 C1.32 0 2.64 0 4 0 C4 7.26 4 14.52 4 22 C-27.35 22 -58.7 22 -91 22 C-91 18.04 -91 14.08 -91 10 C-60.97 10 -30.94 10 0 10 C0 6.7 0 3.4 0 0 Z " fill="#0D0D0F" transform="translate(389,146)"/>
<path d="M0 0 C9.9 0 19.8 0 30 0 C30 2.97 30 5.94 30 9 C32.97 9 35.94 9 39 9 C38.67 9.99 38.34 10.98 38 12 C35.36 11.67 32.72 11.34 30 11 C30 11.66 30 12.32 30 13 C31.98 13 33.96 13 36 13 C36 49.3 36 85.6 36 123 C33.91585158 119.87377738 33.75101381 119.20071865 33.75949097 115.6530304 C33.75674164 114.76542023 33.75399231 113.87781006 33.75115967 112.96330261 C33.7619455 111.50674004 33.7619455 111.50674004 33.77294922 110.02075195 C33.77265717 108.99618896 33.77236511 107.97162598 33.77206421 106.91601562 C33.77345956 103.52335189 33.7890306 100.13090671 33.8046875 96.73828125 C33.80841689 94.38844421 33.81126421 92.03860562 33.81326294 89.68876648 C33.82090517 83.49913248 33.84055879 77.30959209 33.8626709 71.11999512 C33.88311659 64.80592109 33.89226193 58.49183195 33.90234375 52.17773438 C33.92380407 39.78511508 33.95794718 27.39256532 34 15 C32.68 15 31.36 15 30 15 C30 18.3 30 21.6 30 25 C20.43 25 10.86 25 1 25 C1 21.7 1 18.4 1 15 C-9.89 15 -20.78 15 -32 15 C-32 18.63 -32 22.26 -32 26 C-32.66 26 -33.32 26 -34 26 C-34 21.71 -34 17.42 -34 13 C-22.45 13 -10.9 13 1 13 C1 12.34 1 11.68 1 11 C-11.21 11 -23.42 11 -36 11 C-36 15.95 -36 20.9 -36 26 C-36.66 26 -37.32 26 -38 26 C-38 20.39 -38 14.78 -38 9 C-25.46 9 -12.92 9 0 9 C0 6.03 0 3.06 0 0 Z " fill="#F5F5F5" transform="translate(1190,47)"/>
<path d="M0 0 C0.495 1.485 0.495 1.485 1 3 C-3.62 3 -8.24 3 -13 3 C-13 12.24 -13 21.48 -13 31 C-17.62 31 -22.24 31 -27 31 C-27 49.48 -27 67.96 -27 87 C-35.91 87 -44.82 87 -54 87 C-54.495 87.99 -54.495 87.99 -55 89 C-39.655 88.505 -39.655 88.505 -24 88 C-24 88.99 -24 89.98 -24 91 C-35.22 91 -46.44 91 -58 91 C-58 85.06 -58 79.12 -58 73 C-59.65 73 -61.3 73 -63 73 C-63 64.75 -63 56.5 -63 48 C-53.1 48 -43.2 48 -33 48 C-33 56.25 -33 64.5 -33 73 C-39.27 73 -45.54 73 -52 73 C-52 76.96 -52 80.92 -52 85 C-44.41 85 -36.82 85 -29 85 C-29 66.52 -29 48.04 -29 29 C-24.38 29 -19.76 29 -15 29 C-15 19.76 -15 10.52 -15 1 C-10.05 0.67 -5.1 0.34 0 0 Z " fill="#F2F2F2" transform="translate(465,83)"/>
<path d="M0 0 C9.9 0 19.8 0 30 0 C30 2.97 30 5.94 30 9 C32.97 9 35.94 9 39 9 C38.67 9.99 38.34 10.98 38 12 C35.36 11.67 32.72 11.34 30 11 C30 11.66 30 12.32 30 13 C31.98 13 33.96 13 36 13 C36 58.54 36 104.08 36 151 C17.85 151 -0.3 151 -19 151 C-19 146.71 -19 142.42 -19 138 C-18.67 138 -18.34 138 -18 138 C-18 141.63 -18 145.26 -18 149 C-0.84 149 16.32 149 34 149 C34 104.78 34 60.56 34 15 C32.68 15 31.36 15 30 15 C30 18.3 30 21.6 30 25 C20.1 25 10.2 25 0 25 C0 16.75 0 8.5 0 0 Z " fill="#F5F5F5" transform="translate(1577,19)"/>
<path d="M0 0 C0.99 0 1.98 0 3 0 C3 7.26 3 14.52 3 22 C-28.02 22 -59.04 22 -91 22 C-91 18.04 -91 14.08 -91 10 C-60.97 10 -30.94 10 0 10 C0 6.7 0 3.4 0 0 Z " fill="#0A0A0C" transform="translate(1464,146)"/>
<path d="M0 0 C9.9 0 19.8 0 30 0 C30 8.25 30 16.5 30 25 C20.43 25 10.86 25 1 25 C1 21.7 1 18.4 1 15 C-9.89 15 -20.78 15 -32 15 C-32 33.48 -32 51.96 -32 71 C-43.55 71 -55.1 71 -67 71 C-67 65.06 -67 59.12 -67 53 C-66.01 53 -65.02 53 -64 53 C-64 58.28 -64 63.56 -64 69 C-54.1 69 -44.2 69 -34 69 C-34 50.52 -34 32.04 -34 13 C-22.45 13 -10.9 13 1 13 C1 12.34 1 11.68 1 11 C-11.21 11 -23.42 11 -36 11 C-36 15.29 -36 19.58 -36 24 C-36.66 24.33 -37.32 24.66 -38 25 C-38 19.72 -38 14.44 -38 9 C-25.46 9 -12.92 9 0 9 C0 6.03 0 3.06 0 0 Z " fill="#F4F4F4" transform="translate(1190,103)"/>
<path d="M0 0 C0.33 0 0.66 0 1 0 C1 27.72 1 55.44 1 84 C-10.22 84 -21.44 84 -33 84 C-33 78.06 -33 72.12 -33 66 C-34.65 66 -36.3 66 -38 66 C-38 57.75 -38 49.5 -38 41 C-28.1 41 -18.2 41 -8 41 C-8 49.25 -8 57.5 -8 66 C-14.27 66 -20.54 66 -27 66 C-27 69.96 -27 73.92 -27 78 C-19.08 77.67 -11.16 77.34 -3 77 C-3 77.99 -3 78.98 -3 80 C-11.91 80 -20.82 80 -30 80 C-30.495 80.99 -30.495 80.99 -31 82 C-21.1 82 -11.2 82 -1 82 C-1.00523682 79.83574463 -1.01047363 77.67148926 -1.01586914 75.44165039 C-1.03249037 68.26519038 -1.0435053 61.08872949 -1.05181217 53.91225529 C-1.05701535 49.56413308 -1.06406608 45.21603071 -1.07543945 40.86791992 C-1.0863599 36.66633854 -1.09229613 32.46477617 -1.09487724 28.26318169 C-1.09671506 26.66574238 -1.10030367 25.06830403 -1.10573006 23.47087288 C-1.13143218 15.58610164 -1.12111888 7.8245563 0 0 Z " fill="#F2F2F2" transform="translate(1515,90)"/>
<path d="M0 0 C9.9 0 19.8 0 30 0 C30 8.25 30 16.5 30 25 C20.43 25 10.86 25 1 25 C1 21.7 1 18.4 1 15 C-9.89 15 -20.78 15 -32 15 C-32 33.48 -32 51.96 -32 71 C-43.22 71 -54.44 71 -66 71 C-66 65.39 -66 59.78 -66 54 C-65.67 54 -65.34 54 -65 54 C-64.67 58.95 -64.34 63.9 -64 69 C-54.1 69 -44.2 69 -34 69 C-34 50.52 -34 32.04 -34 13 C-22.45 13 -10.9 13 1 13 C1 12.34 1 11.68 1 11 C-11.54 11 -24.08 11 -37 11 C-37 10.34 -37 9.68 -37 9 C-24.79 9 -12.58 9 0 9 C0 6.03 0 3.06 0 0 Z " fill="#F5F5F5" transform="translate(674,103)"/>
<path d="M0 0 C9.9 0 19.8 0 30 0 C30 2.97 30 5.94 30 9 C33.3 9 36.6 9 40 9 C40 23.85 40 38.7 40 54 C39.01 54 38.02 54 37 54 C37 39.81 37 25.62 37 11 C34.69 11 32.38 11 30 11 C30 11.66 30 12.32 30 13 C31.98 13 33.96 13 36 13 C36 26.53 36 40.06 36 54 C35.01 54 34.02 54 33 54 C33 41.46 33 28.92 33 16 C32.01 16 31.02 16 30 16 C30 18.97 30 21.94 30 25 C20.1 25 10.2 25 0 25 C0 16.75 0 8.5 0 0 Z " fill="#EDEDEE" transform="translate(603,19)"/>
<path d="M0 0 C0.99 0 1.98 0 3 0 C3 6.93 3 13.86 3 21 C-23.4 21 -49.8 21 -77 21 C-77 17.04 -77 13.08 -77 9 C-51.59 9 -26.18 9 0 9 C0 6.03 0 3.06 0 0 Z " fill="#0A0A0C" transform="translate(934,147)"/>
<path d="M0 0 C0.99 0 1.98 0 3 0 C3 6.93 3 13.86 3 21 C-23.4 21 -49.8 21 -77 21 C-77 17.04 -77 13.08 -77 9 C-51.59 9 -26.18 9 0 9 C0 6.03 0 3.06 0 0 Z " fill="#0B0B0D" transform="translate(590,147)"/>
<path d="M0 0 C9.9 0 19.8 0 30 0 C30 2.97 30 5.94 30 9 C32.97 9 35.94 9 39 9 C39 23.85 39 38.7 39 54 C38.34 54 37.68 54 37 54 C37 39.81 37 25.62 37 11 C34.69 11 32.38 11 30 11 C30 11.66 30 12.32 30 13 C31.98 13 33.96 13 36 13 C36 26.53 36 40.06 36 54 C35.01 54 34.02 54 33 54 C33 41.46 33 28.92 33 16 C32.01 16 31.02 16 30 16 C30 18.97 30 21.94 30 25 C20.1 25 10.2 25 0 25 C0 16.75 0 8.5 0 0 Z " fill="#F3F3F3" transform="translate(947,19)"/>
<path d="M0 0 C9.57 0 19.14 0 29 0 C29 8.25 29 16.5 29 25 C19.43 25 9.86 25 0 25 C0 21.7 0 18.4 0 15 C-11.22 15 -22.44 15 -34 15 C-34 17.97 -34 20.94 -34 24 C-34.33 24 -34.66 24 -35 24 C-35 20.37 -35 16.74 -35 13 C-23.45 13 -11.9 13 0 13 C0 12.34 0 11.68 0 11 C-12.54 11 -25.08 11 -38 11 C-38 10.34 -38 9.68 -38 9 C-25.46 9 -12.92 9 0 9 C0 6.03 0 3.06 0 0 Z " fill="#F6F6F6" transform="translate(202,103)"/>
<path d="M0 0 C9.9 0 19.8 0 30 0 C30 8.25 30 16.5 30 25 C23.4 25 16.8 25 10 25 C10 28.96 10 32.92 10 37 C17.92 37 25.84 37 34 37 C34 33.7 34 30.4 34 27 C34.33 27 34.66 27 35 27 C35 30.96 35 34.92 35 39 C26.09 39 17.18 39 8 39 C8 34.38 8 29.76 8 25 C7.34 25 6.68 25 6 25 C6 30.28 6 35.56 6 41 C5.67 41 5.34 41 5 41 C5 35.72 5 30.44 5 25 C3.35 25 1.7 25 0 25 C0 16.75 0 8.5 0 0 Z " fill="#F3F3F3" transform="translate(947,131)"/>
<path d="M0 0 C0.33 0 0.66 0 1 0 C1 11.22 1 22.44 1 34 C-13.19 34 -27.38 34 -42 34 C-42 70.96 -42 107.92 -42 146 C-42.99 145.01 -42.99 145.01 -44 144 C-47.20813626 143.72082705 -47.20813626 143.72082705 -50.9765625 143.8046875 C-51.66181 143.8075174 -52.3470575 143.81034729 -53.05307007 143.81326294 C-55.24389027 143.82446719 -57.43430316 143.84957141 -59.625 143.875 C-61.1093691 143.88502952 -62.5937446 143.89415542 -64.078125 143.90234375 C-67.71903356 143.92270677 -71.35906032 143.96185279 -75 144 C-75 138.72 -75 133.44 -75 128 C-74.34 128 -73.68 128 -73 128 C-73 132.62 -73 137.24 -73 142 C-64.09 142 -55.18 142 -46 142 C-46 105.04 -46 68.08 -46 30 C-31.81 30 -17.62 30 -3 30 C-3 21.42 -3 12.84 -3 4 C-4.98 4 -6.96 4 -9 4 C-9 3.34 -9 2.68 -9 2 C-6.36 2 -3.72 2 -1 2 C-0.67 1.34 -0.34 0.68 0 0 Z " fill="#DEDEDE" transform="translate(1745,28)"/>
<path d="M0 0 C9.57 0 19.14 0 29 0 C29 8.25 29 16.5 29 25 C22.73 25 16.46 25 10 25 C10 28.96 10 32.92 10 37 C17.92 37 25.84 37 34 37 C34 33.7 34 30.4 34 27 C34.33 27 34.66 27 35 27 C35 30.96 35 34.92 35 39 C26.09 39 17.18 39 8 39 C8 34.38 8 29.76 8 25 C7.01 25.33 6.02 25.66 5 26 C3.35 25.67 1.7 25.34 0 25 C0 16.75 0 8.5 0 0 Z " fill="#F6F6F6" transform="translate(245,131)"/>
<path d="M0 0 C9.57 0 19.14 0 29 0 C29 8.25 29 16.5 29 25 C22.73 25 16.46 25 10 25 C10 28.96 10 32.92 10 37 C17.92 37 25.84 37 34 37 C34 33.7 34 30.4 34 27 C34.33 27 34.66 27 35 27 C35 30.96 35 34.92 35 39 C26.09 39 17.18 39 8 39 C8 34.38 8 29.76 8 25 C7.01 25.33 6.02 25.66 5 26 C3.35 25.67 1.7 25.34 0 25 C0 16.75 0 8.5 0 0 Z " fill="#F6F6F6" transform="translate(202,131)"/>
<path d="M0 0 C0.33 3.96 0.66 7.92 1 12 C2.65 12 4.3 12 6 12 C6 9.03 6 6.06 6 3 C15.9 3 25.8 3 36 3 C36 11.25 36 19.5 36 28 C26.43 28 16.86 28 7 28 C7 24.7 7 21.4 7 18 C3.7 18 0.4 18 -3 18 C-3 12.39 -3 6.78 -3 1 C-1 0 -1 0 0 0 Z " fill="#EDEDED" transform="translate(396,100)"/>
<path d="M0 0 C9.9 0 19.8 0 30 0 C30 8.25 30 16.5 30 25 C20.1 25 10.2 25 0 25 C0 16.75 0 8.5 0 0 Z " fill="#F4F4F4" transform="translate(1663,103)"/>
<path d="M0 0 C9.9 0 19.8 0 30 0 C30 8.25 30 16.5 30 25 C20.1 25 10.2 25 0 25 C0 16.75 0 8.5 0 0 Z " fill="#F4F4F4" transform="translate(1577,103)"/>
<path d="M0 0 C9.9 0 19.8 0 30 0 C30 8.25 30 16.5 30 25 C20.1 25 10.2 25 0 25 C0 16.75 0 8.5 0 0 Z " fill="#F3F3F3" transform="translate(1477,103)"/>
<path d="M0 0 C9.9 0 19.8 0 30 0 C30 8.25 30 16.5 30 25 C20.1 25 10.2 25 0 25 C0 16.75 0 8.5 0 0 Z " fill="#F2F2F2" transform="translate(1362,103)"/>
<path d="M0 0 C9.9 0 19.8 0 30 0 C30 8.25 30 16.5 30 25 C20.1 25 10.2 25 0 25 C0 16.75 0 8.5 0 0 Z " fill="#F2F2F2" transform="translate(1319,103)"/>
<path d="M0 0 C9.9 0 19.8 0 30 0 C30 8.25 30 16.5 30 25 C20.1 25 10.2 25 0 25 C0 16.75 0 8.5 0 0 Z " fill="#F3F3F3" transform="translate(1119,103)"/>
<path d="M0 0 C9.9 0 19.8 0 30 0 C30 8.25 30 16.5 30 25 C20.1 25 10.2 25 0 25 C0 16.75 0 8.5 0 0 Z " fill="#F3F3F3" transform="translate(947,103)"/>
<path d="M0 0 C9.9 0 19.8 0 30 0 C30 8.25 30 16.5 30 25 C20.1 25 10.2 25 0 25 C0 16.75 0 8.5 0 0 Z " fill="#F2F2F2" transform="translate(717,103)"/>
<path d="M0 0 C9.9 0 19.8 0 30 0 C30 8.25 30 16.5 30 25 C20.1 25 10.2 25 0 25 C0 16.75 0 8.5 0 0 Z " fill="#F3F3F3" transform="translate(603,103)"/>
<path d="M0 0 C9.9 0 19.8 0 30 0 C30 8.25 30 16.5 30 25 C20.1 25 10.2 25 0 25 C0 16.75 0 8.5 0 0 Z " fill="#F3F3F3" transform="translate(130,103)"/>
<path d="M0 0 C9.9 0 19.8 0 30 0 C30 8.25 30 16.5 30 25 C20.1 25 10.2 25 0 25 C0 16.75 0 8.5 0 0 Z " fill="#F3F3F3" transform="translate(87,103)"/>
<path d="M0 0 C9.9 0 19.8 0 30 0 C30 8.25 30 16.5 30 25 C20.1 25 10.2 25 0 25 C0 16.75 0 8.5 0 0 Z " fill="#F2F2F2" transform="translate(15,103)"/>
<path d="M0 0 C9.9 0 19.8 0 30 0 C30 8.25 30 16.5 30 25 C20.1 25 10.2 25 0 25 C0 16.75 0 8.5 0 0 Z " fill="#F4F4F4" transform="translate(1663,75)"/>
<path d="M0 0 C9.9 0 19.8 0 30 0 C30 8.25 30 16.5 30 25 C20.1 25 10.2 25 0 25 C0 16.75 0 8.5 0 0 Z " fill="#F4F4F4" transform="translate(1577,75)"/>
<path d="M0 0 C9.9 0 19.8 0 30 0 C30 8.25 30 16.5 30 25 C20.1 25 10.2 25 0 25 C0 16.75 0 8.5 0 0 Z " fill="#F3F3F3" transform="translate(1477,75)"/>
<path d="M0 0 C9.9 0 19.8 0 30 0 C30 8.25 30 16.5 30 25 C20.1 25 10.2 25 0 25 C0 16.75 0 8.5 0 0 Z " fill="#F2F2F2" transform="translate(1233,75)"/>
<path d="M0 0 C9.9 0 19.8 0 30 0 C30 8.25 30 16.5 30 25 C20.1 25 10.2 25 0 25 C0 16.75 0 8.5 0 0 Z " fill="#F3F3F3" transform="translate(832,75)"/>
<path d="M0 0 C9.9 0 19.8 0 30 0 C30 8.25 30 16.5 30 25 C20.1 25 10.2 25 0 25 C0 16.75 0 8.5 0 0 Z " fill="#F4F4F4" transform="translate(488,75)"/>
<path d="M0 0 C9.9 0 19.8 0 30 0 C30 8.25 30 16.5 30 25 C20.1 25 10.2 25 0 25 C0 16.75 0 8.5 0 0 Z " fill="#F3F3F3" transform="translate(87,75)"/>
<path d="M0 0 C9.9 0 19.8 0 30 0 C30 8.25 30 16.5 30 25 C20.1 25 10.2 25 0 25 C0 16.75 0 8.5 0 0 Z " fill="#F2F2F2" transform="translate(15,75)"/>
<path d="M0 0 C9.9 0 19.8 0 30 0 C30 8.25 30 16.5 30 25 C20.1 25 10.2 25 0 25 C0 16.75 0 8.5 0 0 Z " fill="#F4F4F4" transform="translate(1577,47)"/>
<path d="M0 0 C9.9 0 19.8 0 30 0 C30 8.25 30 16.5 30 25 C20.1 25 10.2 25 0 25 C0 16.75 0 8.5 0 0 Z " fill="#F2F2F2" transform="translate(1362,47)"/>
<path d="M0 0 C9.9 0 19.8 0 30 0 C30 8.25 30 16.5 30 25 C20.1 25 10.2 25 0 25 C0 16.75 0 8.5 0 0 Z " fill="#F2F2F2" transform="translate(1233,47)"/>
<path d="M0 0 C9.9 0 19.8 0 30 0 C30 8.25 30 16.5 30 25 C20.1 25 10.2 25 0 25 C0 16.75 0 8.5 0 0 Z " fill="#F3F3F3" transform="translate(1119,47)"/>
<path d="M0 0 C9.9 0 19.8 0 30 0 C30 8.25 30 16.5 30 25 C20.1 25 10.2 25 0 25 C0 16.75 0 8.5 0 0 Z " fill="#F3F3F3" transform="translate(1004,47)"/>
<path d="M0 0 C9.9 0 19.8 0 30 0 C30 8.25 30 16.5 30 25 C20.1 25 10.2 25 0 25 C0 16.75 0 8.5 0 0 Z " fill="#F3F3F3" transform="translate(947,47)"/>
<path d="M0 0 C9.9 0 19.8 0 30 0 C30 8.25 30 16.5 30 25 C20.1 25 10.2 25 0 25 C0 16.75 0 8.5 0 0 Z " fill="#F3F3F3" transform="translate(832,47)"/>
<path d="M0 0 C9.9 0 19.8 0 30 0 C30 8.25 30 16.5 30 25 C20.1 25 10.2 25 0 25 C0 16.75 0 8.5 0 0 Z " fill="#F2F2F2" transform="translate(717,47)"/>
<path d="M0 0 C9.9 0 19.8 0 30 0 C30 8.25 30 16.5 30 25 C20.1 25 10.2 25 0 25 C0 16.75 0 8.5 0 0 Z " fill="#F2F2F2" transform="translate(674,47)"/>
<path d="M0 0 C9.9 0 19.8 0 30 0 C30 8.25 30 16.5 30 25 C20.1 25 10.2 25 0 25 C0 16.75 0 8.5 0 0 Z " fill="#F3F3F3" transform="translate(603,47)"/>
<path d="M0 0 C9.9 0 19.8 0 30 0 C30 8.25 30 16.5 30 25 C20.1 25 10.2 25 0 25 C0 16.75 0 8.5 0 0 Z " fill="#F4F4F4" transform="translate(488,47)"/>
<path d="M0 0 C9.9 0 19.8 0 30 0 C30 8.25 30 16.5 30 25 C20.1 25 10.2 25 0 25 C0 16.75 0 8.5 0 0 Z " fill="#F3F3F3" transform="translate(431,47)"/>
<path d="M0 0 C9.9 0 19.8 0 30 0 C30 8.25 30 16.5 30 25 C20.1 25 10.2 25 0 25 C0 16.75 0 8.5 0 0 Z " fill="#F3F3F3" transform="translate(130,47)"/>
<path d="M0 0 C9.9 0 19.8 0 30 0 C30 8.25 30 16.5 30 25 C20.1 25 10.2 25 0 25 C0 16.75 0 8.5 0 0 Z " fill="#F2F2F2" transform="translate(15,47)"/>
<path d="M0 0 C9.57 0 19.14 0 29 0 C29 8.25 29 16.5 29 25 C19.43 25 9.86 25 0 25 C0 16.75 0 8.5 0 0 Z " fill="#F6F6F6" transform="translate(288,103)"/>
<path d="M0 0 C9.57 0 19.14 0 29 0 C29 8.25 29 16.5 29 25 C19.43 25 9.86 25 0 25 C0 16.75 0 8.5 0 0 Z " fill="#F6F6F6" transform="translate(245,103)"/>
<path d="M0 0 C9.57 0 19.14 0 29 0 C29 8.25 29 16.5 29 25 C19.43 25 9.86 25 0 25 C0 16.75 0 8.5 0 0 Z " fill="#F6F6F6" transform="translate(288,75)"/>
<path d="M0 0 C9.57 0 19.14 0 29 0 C29 8.25 29 16.5 29 25 C19.43 25 9.86 25 0 25 C0 16.75 0 8.5 0 0 Z " fill="#F6F6F6" transform="translate(245,75)"/>
<path d="M0 0 C9.57 0 19.14 0 29 0 C29 8.25 29 16.5 29 25 C19.43 25 9.86 25 0 25 C0 16.75 0 8.5 0 0 Z " fill="#F6F6F6" transform="translate(288,47)"/>
<path d="M0 0 C9.57 0 19.14 0 29 0 C29 8.25 29 16.5 29 25 C19.43 25 9.86 25 0 25 C0 16.75 0 8.5 0 0 Z " fill="#F6F6F6" transform="translate(245,47)"/>
<path d="M0 0 C0.33 0 0.66 0 1 0 C1 48.18 1 96.36 1 146 C0.01 145.01 0.01 145.01 -1 144 C-3.58970485 143.7068502 -3.58970485 143.7068502 -6.64306641 143.77294922 C-8.41467636 143.77317581 -8.41467636 143.77317581 -10.22207642 143.77340698 C-11.50230682 143.78372955 -12.78253723 143.79405212 -14.1015625 143.8046875 C-15.40829926 143.8075174 -16.71503601 143.81034729 -18.06137085 143.81326294 C-21.53682081 143.82090224 -25.01210383 143.8405531 -28.48748779 143.8626709 C-32.03330222 143.88312304 -35.5791436 143.89226329 -39.125 143.90234375 C-46.08340886 143.92379886 -53.04167923 143.95898333 -60 144 C-60 138.72 -60 133.44 -60 128 C-59.67 128 -59.34 128 -59 128 C-59 132.62 -59 137.24 -59 142 C-40.52 142 -22.04 142 -3 142 C-3 96.46 -3 50.92 -3 4 C-4.98 4 -6.96 4 -9 4 C-9 3.34 -9 2.68 -9 2 C-6.36 2 -3.72 2 -1 2 C-0.67 1.34 -0.34 0.68 0 0 Z " fill="#8F8F90" transform="translate(1616,28)"/>
<path d="M0 0 C2.64 0 5.28 0 8 0 C8 46.86 8 93.72 8 142 C-1.9 142 -11.8 142 -22 142 C-22 136.72 -22 131.44 -22 126 C-21.67 126 -21.34 126 -21 126 C-21 130.62 -21 135.24 -21 140 C-12.09 140 -3.18 140 6 140 C5.34 139.34 4.68 138.68 4 138 C3.75111103 135.8201437 3.75111103 135.8201437 3.75276184 133.05870056 C3.74856735 132.01404129 3.74437286 130.96938202 3.74005127 129.89306641 C3.74848053 128.16697144 3.74848053 128.16697144 3.75708008 126.40600586 C3.75518173 125.19787735 3.75328339 123.98974884 3.75132751 122.74501038 C3.74825161 119.42689331 3.75414252 116.10902401 3.76428056 112.79093623 C3.77304874 109.32405033 3.77130386 105.85716878 3.7709198 102.39027405 C3.7718569 96.56867217 3.78054763 90.74712235 3.79418945 84.92553711 C3.80992283 78.18630823 3.81518733 71.44713637 3.8144539 64.70789045 C3.81384444 58.2344419 3.81894189 51.761012 3.82724571 45.28756905 C3.83078436 42.52800921 3.83260979 39.76845597 3.83313942 37.00889397 C3.83432659 33.16077518 3.84402301 29.31270425 3.85473633 25.46459961 C3.85428314 24.3118454 3.85382996 23.15909119 3.85336304 21.97140503 C3.85976051 20.40864586 3.85976051 20.40864586 3.86628723 18.8143158 C3.86796308 17.90341659 3.86963892 16.99251738 3.87136555 16.05401516 C4 14 4 14 5 13 C5.23363881 11.15108054 5.41303635 9.29511969 5.5625 7.4375 C5.64628906 6.42558594 5.73007812 5.41367187 5.81640625 4.37109375 C5.90728516 3.19740234 5.90728516 3.19740234 6 2 C4.02 2 2.04 2 0 2 C0 1.34 0 0.68 0 0 Z " fill="#7E7E7F" transform="translate(274,30)"/>
<path d="M0 0 C0.33 0 0.66 0 1 0 C1 38.94 1 77.88 1 118 C0.34 117.34 -0.32 116.68 -1 116 C-4.11038944 115.72095371 -4.11038944 115.72095371 -7.7578125 115.8046875 C-8.75238968 115.80893234 -8.75238968 115.80893234 -9.76705933 115.81326294 C-11.88655583 115.82446565 -14.00563104 115.84956949 -16.125 115.875 C-17.56119182 115.88502972 -18.99739025 115.89415559 -20.43359375 115.90234375 C-23.95602238 115.92270461 -27.47753917 115.9618506 -31 116 C-31 110.72 -31 105.44 -31 100 C-30.67 100 -30.34 100 -30 100 C-30 104.62 -30 109.24 -30 114 C-21.09 114 -12.18 114 -3 114 C-3 77.7 -3 41.4 -3 4 C-4.98 4 -6.96 4 -9 4 C-9 3.34 -9 2.68 -9 2 C-6.36 2 -3.72 2 -1 2 C-0.67 1.34 -0.34 0.68 0 0 Z " fill="#939394" transform="translate(1229,56)"/>
<path d="M0 0 C2.64 0 5.28 0 8 0 C8 37.62 8 75.24 8 114 C-1.9 114 -11.8 114 -22 114 C-22 108.72 -22 103.44 -22 98 C-21.67 98 -21.34 98 -21 98 C-21 102.62 -21 107.24 -21 112 C-12.09 112 -3.18 112 6 112 C5.34 111.34 4.68 110.68 4 110 C3.80632345 106.96188509 3.73786874 104.01522094 3.75708008 100.97631836 C3.75518173 100.04128983 3.75328339 99.10626129 3.75132751 98.14289856 C3.74761255 95.04179591 3.75833345 91.9409257 3.76953125 88.83984375 C3.77072266 86.69275439 3.77117629 84.5456645 3.7709198 82.39857483 C3.77248587 77.89515936 3.78078551 73.39182324 3.79418945 68.88842773 C3.81118966 63.10194481 3.81500358 57.31554912 3.81424427 51.52904415 C3.81451555 47.09484517 3.81998983 42.66066545 3.82724571 38.22647285 C3.83043847 36.09211943 3.83240119 33.95776381 3.83313942 31.82340813 C3.835296 28.84699625 3.84402509 25.87067885 3.85473633 22.89428711 C3.85405655 21.55788681 3.85405655 21.55788681 3.85336304 20.19448853 C3.885526 14.114474 3.885526 14.114474 5 13 C5.23363881 11.15108054 5.41303635 9.29511969 5.5625 7.4375 C5.64628906 6.42558594 5.73007813 5.41367187 5.81640625 4.37109375 C5.90728516 3.19740234 5.90728516 3.19740234 6 2 C4.02 2 2.04 2 0 2 C0 1.34 0 0.68 0 0 Z " fill="#5A5A5B" transform="translate(231,58)"/>
<path d="M0 0 C0.33 0.66 0.66 1.32 1 2 C3.97 2 6.94 2 10 2 C10 2.66 10 3.32 10 4 C8.02 4 6.04 4 4 4 C4 31.72 4 59.44 4 88 C-5.9 88 -15.8 88 -26 88 C-26 82.72 -26 77.44 -26 72 C-25.67 72 -25.34 72 -25 72 C-25 76.62 -25 81.24 -25 86 C-16.09 86 -7.18 86 2 86 C1.34 85.34 0.68 84.68 0 84 C-0.18799291 81.31936573 -0.25181991 78.74290542 -0.22705078 76.06201172 C-0.22734283 75.24241974 -0.22763489 74.42282776 -0.22793579 73.57839966 C-0.22653944 70.86205557 -0.21096401 68.14598382 -0.1953125 65.4296875 C-0.19158345 63.54924672 -0.18873597 61.66880401 -0.18673706 59.7883606 C-0.17909207 54.83334002 -0.15943619 49.87843626 -0.1373291 44.92346191 C-0.11688928 39.8695636 -0.10773934 34.81564646 -0.09765625 29.76171875 C-0.07619109 19.84109445 -0.04204474 9.92055693 0 0 Z " fill="#8C8C8D" transform="translate(1510,84)"/>
<path d="M0 0 C0.33 0 0.66 0 1 0 C1 11.22 1 22.44 1 34 C-22.76 34 -46.52 34 -71 34 C-71 56.11 -71 78.22 -71 101 C-71.99 101 -72.98 101 -74 101 C-74 78.23 -74 55.46 -74 32 C-50.24 32 -26.48 32 -2 32 C-2 27.05 -2 22.1 -2 17 C-1.67 17 -1.34 17 -1 17 C-0.67 11.39 -0.34 5.78 0 0 Z " fill="#DDDDDD" transform="translate(1344,28)"/>
<path d="M0 0 C0.33 0 0.66 0 1 0 C1 11.22 1 22.44 1 34 C-22.76 34 -46.52 34 -71 34 C-71 56.11 -71 78.22 -71 101 C-71.99 101 -72.98 101 -74 101 C-74 78.23 -74 55.46 -74 32 C-50.24 32 -26.48 32 -2 32 C-2 27.05 -2 22.1 -2 17 C-1.67 17 -1.34 17 -1 17 C-0.67 11.39 -0.34 5.78 0 0 Z " fill="#DDDDDD" transform="translate(599,28)"/>
<path d="M0 0 C2.64 0 5.28 0 8 0 C8 46.86 8 93.72 8 142 C-1.9 142 -11.8 142 -22 142 C-22 136.72 -22 131.44 -22 126 C-21.67 126 -21.34 126 -21 126 C-21 130.62 -21 135.24 -21 140 C-12.09 140 -3.18 140 6 140 C6 94.46 6 48.92 6 2 C4.02 2 2.04 2 0 2 C0 1.34 0 0.68 0 0 Z " fill="#535354" transform="translate(704,30)"/>
<path d="M0 0 C2.31 0 4.62 0 7 0 C7 9.9 7 19.8 7 30 C2.38 30 -2.24 30 -7 30 C-7 39.24 -7 48.48 -7 58 C-11.62 58 -16.24 58 -21 58 C-21 67.24 -21 76.48 -21 86 C-25.95 86 -30.9 86 -36 86 C-36 104.48 -36 122.96 -36 142 C-45.57 142 -55.14 142 -65 142 C-65 136.72 -65 131.44 -65 126 C-64.67 126 -64.34 126 -64 126 C-64 130.62 -64 135.24 -64 140 C-55.09 140 -46.18 140 -37 140 C-37 121.52 -37 103.04 -37 84 C-32.38 84 -27.76 84 -23 84 C-23 74.76 -23 65.52 -23 56 C-18.05 56 -13.1 56 -8 56 C-8 46.76 -8 37.52 -8 28 C-3.38 28 1.24 28 6 28 C6 19.42 6 10.84 6 2 C4.02 2 2.04 2 0 2 C0 1.34 0 0.68 0 0 Z " fill="#202022" transform="translate(475,30)"/>
<path d="M0 0 C2.31 0 4.62 0 7 0 C7 9.9 7 19.8 7 30 C-7.19 30 -21.38 30 -36 30 C-36 66.96 -36 103.92 -36 142 C-45.9 142 -55.8 142 -66 142 C-66 136.72 -66 131.44 -66 126 C-65.34 126 -64.68 126 -64 126 C-64 130.62 -64 135.24 -64 140 C-55.09 140 -46.18 140 -37 140 C-37 103.04 -37 66.08 -37 28 C-22.81 28 -8.62 28 6 28 C6 19.42 6 10.84 6 2 C4.02 2 2.04 2 0 2 C0 1.34 0 0.68 0 0 Z " fill="#1F1F21" transform="translate(1736,30)"/>
<path d="M0 0 C1.32 0 2.64 0 4 0 C4 7.26 4 14.52 4 22 C-3.59 22 -11.18 22 -19 22 C-19 18.04 -19 14.08 -19 10 C-12.73 10 -6.46 10 0 10 C0 6.7 0 3.4 0 0 Z " fill="#0C0C0E" transform="translate(1048,146)"/>
<path d="M0 0 C0.495 1.485 0.495 1.485 1 3 C-3.62 3 -8.24 3 -13 3 C-13 12.24 -13 21.48 -13 31 C-43.03 31 -73.06 31 -104 31 C-104 25.39 -104 19.78 -104 14 C-103.67 14 -103.34 14 -103 14 C-103 18.95 -103 23.9 -103 29 C-73.96 29 -44.92 29 -15 29 C-15 19.76 -15 10.52 -15 1 C-10.05 0.67 -5.1 0.34 0 0 Z " fill="#F8F8F8" transform="translate(125,143)"/>
<path d="M0 0 C0.33 0 0.66 0 1 0 C1 32.01 1 64.02 1 97 C0.01 97 -0.98 97 -2 97 C-2.02312283 85.93465142 -2.04091478 74.86930855 -2.05181217 63.80394077 C-2.05704113 58.66640434 -2.06413901 53.52888437 -2.07543945 48.39135742 C-2.08626787 43.4376859 -2.09227674 38.48403026 -2.09487724 33.53034782 C-2.09673157 31.63602384 -2.10035234 29.74170076 -2.10573006 27.8473835 C-2.11293989 25.20365614 -2.11399097 22.55999529 -2.11352539 19.91625977 C-2.11712067 19.12504227 -2.12071594 18.33382477 -2.12442017 17.51863098 C-2.11405216 12.11405216 -2.11405216 12.11405216 -1 11 C-0.76636119 9.15108054 -0.58696365 7.29511969 -0.4375 5.4375 C-0.35371094 4.42558594 -0.26992188 3.41367187 -0.18359375 2.37109375 C-0.12300781 1.58863281 -0.06242187 0.80617187 0 0 Z " fill="#D1D1D1" transform="translate(323,32)"/>
<path d="M0 0 C0.33 0 0.66 0 1 0 C1 29.7 1 59.4 1 90 C0.01 89.34 -0.98 88.68 -2 88 C-2.36749268 85.06887817 -2.36749268 85.06887817 -2.35644531 81.26220703 C-2.35951187 80.22266624 -2.35951187 80.22266624 -2.36264038 79.16212463 C-2.36565859 76.86042245 -2.34712323 74.55943023 -2.328125 72.2578125 C-2.32506561 70.65274228 -2.32319086 69.0476694 -2.32244873 67.44259644 C-2.31783722 64.06807373 -2.30339252 60.69378851 -2.28125 57.31933594 C-2.25319405 53.02485753 -2.2420615 48.73056786 -2.2375679 44.43600655 C-2.23236547 40.3140849 -2.21784215 36.19220909 -2.203125 32.0703125 C-2.20124428 31.29699711 -2.19936356 30.52368172 -2.19742584 29.72693253 C-2.124166 6.37249801 -2.124166 6.37249801 0 0 Z " fill="#CCCCCC" transform="translate(126,56)"/>
<path d="M0 0 C0.33 0 0.66 0 1 0 C1 27.06 1 54.12 1 82 C0.01 81.34 -0.98 80.68 -2 80 C-2.28666087 77.48611883 -2.37862623 75.21925087 -2.34057617 72.70458984 C-2.34101425 71.95327286 -2.34145233 71.20195587 -2.34190369 70.4278717 C-2.33980969 67.93863142 -2.31645062 65.45006045 -2.29296875 62.9609375 C-2.28737495 61.23744067 -2.28310383 59.51393909 -2.28010559 57.79043579 C-2.26863976 53.24962237 -2.2391578 48.70909588 -2.20599365 44.168396 C-2.1753301 39.53678265 -2.16160822 34.90512304 -2.14648438 30.2734375 C-2.11428963 21.18216545 -2.06307243 12.09110657 -2 3 C-1.34 3 -0.68 3 0 3 C0 2.01 0 1.02 0 0 Z " fill="#D7D7D7" transform="translate(122,60)"/>
<path d="M0 0 C0.33 0 0.66 0 1 0 C1 11.22 1 22.44 1 34 C-22.76 34 -46.52 34 -71 34 C-71 37.63 -71 41.26 -71 45 C-71.99 45 -72.98 45 -74 45 C-74 40.71 -74 36.42 -74 32 C-50.24 32 -26.48 32 -2 32 C-2 27.05 -2 22.1 -2 17 C-1.67 17 -1.34 17 -1 17 C-0.67 11.39 -0.34 5.78 0 0 Z " fill="#E1E1E1" transform="translate(1473,28)"/>
<path d="M0 0 C2.31 0 4.62 0 7 0 C7 9.9 7 19.8 7 30 C-16.43 30 -39.86 30 -64 30 C-64 34.29 -64 38.58 -64 43 C-63.34 43.33 -62.68 43.66 -62 44 C-64.475 44.495 -64.475 44.495 -67 45 C-67.33 44.34 -67.66 43.68 -68 43 C-67.34 43 -66.68 43 -66 43 C-66 38.05 -66 33.1 -66 28 C-42.24 28 -18.48 28 6 28 C6 19.42 6 10.84 6 2 C4.02 2 2.04 2 0 2 C0 1.34 0 0.68 0 0 Z " fill="#3A3A3C" transform="translate(819,30)"/>
<path d="M0 0 C0.33 0 0.66 0 1 0 C1 20.79 1 41.58 1 63 C-3.62 63 -8.24 63 -13 63 C-13 71.91 -13 80.82 -13 90 C-13.33 90 -13.66 90 -14 90 C-14 80.76 -14 71.52 -14 62 C-9.38 62 -4.76 62 0 62 C-0.66 61.34 -1.32 60.68 -2 60 C-2.25396729 57.57104492 -2.25396729 57.57104492 -2.25878906 54.48046875 C-2.26509338 53.32587158 -2.27139771 52.17127441 -2.27789307 50.98168945 C-2.2738446 49.72960693 -2.26979614 48.47752441 -2.265625 47.1875 C-2.26753845 45.90770264 -2.2694519 44.62790527 -2.27142334 43.30932617 C-2.27437382 40.59907207 -2.27007955 37.88894973 -2.26074219 35.17871094 C-2.24934753 31.70150769 -2.25590743 28.22461318 -2.26788712 24.74742126 C-2.27684425 21.43575596 -2.27057635 18.12417409 -2.265625 14.8125 C-2.26967346 13.56041748 -2.27372192 12.30833496 -2.27789307 11.01831055 C-2.26843658 9.28641479 -2.26843658 9.28641479 -2.25878906 7.51953125 C-2.25640228 5.98969604 -2.25640228 5.98969604 -2.25396729 4.42895508 C-2 2 -2 2 0 0 Z " fill="#C5C5C6" transform="translate(1358,84)"/>
<path d="M0 0 C11.88 0 23.76 0 36 0 C36 0.66 36 1.32 36 2 C24.78 2 13.56 2 2 2 C2 24.77 2 47.54 2 71 C2.66 71.33 3.32 71.66 4 72 C1.525 72.495 1.525 72.495 -1 73 C-1.33 72.34 -1.66 71.68 -2 71 C-1.34 71 -0.68 71 0 71 C0 47.57 0 24.14 0 0 Z " fill="#4F4F51" transform="translate(51,58)"/>
<path d="M0 0 C0.33 0 0.66 0 1 0 C1 11.22 1 22.44 1 34 C-13.19 34 -27.38 34 -42 34 C-42 37.63 -42 41.26 -42 45 C-42.99 45 -43.98 45 -45 45 C-45 40.71 -45 36.42 -45 32 C-30.81 32 -16.62 32 -2 32 C-2.0791358 22.21693059 -2.0791358 22.21693059 -2.18017578 12.43408203 C-2.1851709 11.22091309 -2.19016602 10.00774414 -2.1953125 8.7578125 C-2.21102295 6.88826904 -2.21102295 6.88826904 -2.22705078 4.98095703 C-2 2 -2 2 0 0 Z " fill="#EEEEEE" transform="translate(1444,84)"/>
<path d="M0 0 C11.88 0 23.76 0 36 0 C36 0.66 36 1.32 36 2 C24.45 2 12.9 2 1 2 C1 20.48 1 38.96 1 58 C-8.9 58 -18.8 58 -29 58 C-29 52.72 -29 47.44 -29 42 C-28.34 42 -27.68 42 -27 42 C-27 46.62 -27 51.24 -27 56 C-18.09 56 -9.18 56 0 56 C0 37.52 0 19.04 0 0 Z " fill="#272729" transform="translate(166,114)"/>
<path d="M0 0 C12.21 0 24.42 0 37 0 C37 0.66 37 1.32 37 2 C25.45 2 13.9 2 2 2 C2 20.48 2 38.96 2 58 C-7.9 58 -17.8 58 -28 58 C-28 52.72 -28 47.44 -28 42 C-27.67 42 -27.34 42 -27 42 C-27 46.62 -27 51.24 -27 56 C-17.76 56 -8.52 56 1 56 C0.67 37.52 0.34 19.04 0 0 Z " fill="#373739" transform="translate(1154,114)"/>
<path d="M0 0 C0.33 0.66 0.66 1.32 1 2 C1.66 2 2.32 2 3 2 C3 24.11 3 46.22 3 69 C2.01 69 1.02 69 0 69 C0 46.23 0 23.46 0 0 Z " fill="#D7D7D7" transform="translate(869,60)"/>
<path d="M0 0 C0.33 0.99 0.66 1.98 1 3 C-3.29 3 -7.58 3 -12 3 C-12 21.48 -12 39.96 -12 59 C-12.99 58.34 -13.98 57.68 -15 57 C-15.36076355 54.6335144 -15.36076355 54.6335144 -15.34057617 51.63232422 C-15.34034958 50.51131317 -15.34012299 49.39030212 -15.33988953 48.23532104 C-15.32440567 47.02071198 -15.30892181 45.80610291 -15.29296875 44.5546875 C-15.28872391 43.31453888 -15.28447906 42.07439026 -15.28010559 40.79666138 C-15.26613216 37.49864537 -15.23917361 34.2010665 -15.20599365 30.90319824 C-15.17531238 27.53838458 -15.16160446 24.17350696 -15.14648438 20.80859375 C-15.11334719 14.20553518 -15.06152902 7.6028526 -15 1 C-10.05 0.67 -5.1 0.34 0 0 Z " fill="#DCDCDC" transform="translate(454,115)"/>
<path d="M0 0 C2.64 0 5.28 0 8 0 C8 9.9 8 19.8 8 30 C-6.19 30 -20.38 30 -35 30 C-35 34.29 -35 38.58 -35 43 C-34.34 43.33 -33.68 43.66 -33 44 C-35.475 44.495 -35.475 44.495 -38 45 C-38.33 44.34 -38.66 43.68 -39 43 C-38.34 43 -37.68 43 -37 43 C-37 38.05 -37 33.1 -37 28 C-22.81 28 -8.62 28 6 28 C6 19.42 6 10.84 6 2 C4.02 2 2.04 2 0 2 C0 1.34 0 0.68 0 0 Z " fill="#4B4B4C" transform="translate(790,86)"/>
<path d="M0 0 C2.64 0 5.28 0 8 0 C8 9.9 8 19.8 8 30 C3.05 30 -1.9 30 -7 30 C-7 39.24 -7 48.48 -7 58 C-11.62 58 -16.24 58 -21 58 C-21 62.29 -21 66.58 -21 71 C-20.34 71.33 -19.68 71.66 -19 72 C-20.875 72.625 -20.875 72.625 -23 73 C-23.66 72.34 -24.32 71.68 -25 71 C-24.34 71 -23.68 71 -23 71 C-23 66.05 -23 61.1 -23 56 C-18.05 56 -13.1 56 -8 56 C-8 46.76 -8 37.52 -8 28 C-3.38 28 1.24 28 6 28 C6 19.42 6 10.84 6 2 C4.02 2 2.04 2 0 2 C0 1.34 0 0.68 0 0 Z " fill="#3F3F41" transform="translate(1048,30)"/>
<path d="M0 0 C2.64 0 5.28 0 8 0 C8 4.95 8 9.9 8 15 C8.66 15.33 9.32 15.66 10 16 C6.99984088 17.00005304 5.02576244 17.11575585 1.89453125 17.09765625 C0.91162109 17.09443359 -0.07128906 17.09121094 -1.08398438 17.08789062 C-2.10814453 17.07951172 -3.13230469 17.07113281 -4.1875 17.0625 C-5.22326172 17.05798828 -6.25902344 17.05347656 -7.32617188 17.04882812 C-9.88417266 17.0370401 -12.44205733 17.02058515 -15 17 C-15 19.97 -15 22.94 -15 26 C-15.99 26 -16.98 26 -18 26 C-18 22.04 -18 18.08 -18 14 C-12.06 14 -6.12 14 0 14 C0 10.7 0 7.4 0 4 C1.32 4 2.64 4 4 4 C4 7.63 4 11.26 4 15 C4.66 15 5.32 15 6 15 C6 10.71 6 6.42 6 2 C4.02 2 2.04 2 0 2 C0 1.34 0 0.68 0 0 Z " fill="#111113" transform="translate(403,58)"/>
<path d="M0 0 C7.26 0 14.52 0 22 0 C22 0.66 22 1.32 22 2 C15.4 2 8.8 2 2 2 C2 20.48 2 38.96 2 58 C-7.9 58 -17.8 58 -28 58 C-28 52.72 -28 47.44 -28 42 C-27.67 42 -27.34 42 -27 42 C-27 46.62 -27 51.24 -27 56 C-17.76 56 -8.52 56 1 56 C0.67 37.52 0.34 19.04 0 0 Z " fill="#353537" transform="translate(982,114)"/>
<path d="M0 0 C2.31 0 4.62 0 7 0 C7.02684679 2.64590014 7.04676357 5.29153096 7.0625 7.9375 C7.07087891 8.69224609 7.07925781 9.44699219 7.08789062 10.22460938 C7.09652441 12.14994313 7.05224333 14.07535581 7 16 C6 17 6 17 3.95874023 17.11352539 C3.08419189 17.10828857 2.20964355 17.10305176 1.30859375 17.09765625 C0.36435547 17.09443359 -0.57988281 17.09121094 -1.55273438 17.08789062 C-3.04256836 17.07532227 -3.04256836 17.07532227 -4.5625 17.0625 C-5.55958984 17.05798828 -6.55667969 17.05347656 -7.58398438 17.04882812 C-10.05604849 17.03700007 -12.52799518 17.02051849 -15 17 C-15 19.97 -15 22.94 -15 26 C-16.32 26 -17.64 26 -19 26 C-19 22.04 -19 18.08 -19 14 C-12.73 14 -6.46 14 0 14 C0 10.7 0 7.4 0 4 C1.32 4 2.64 4 4 4 C4 7.63 4 11.26 4 15 C4.66 15 5.32 15 6 15 C6 10.71 6 6.42 6 2 C4.02 2 2.04 2 0 2 C0 1.34 0 0.68 0 0 Z " fill="#18181A" transform="translate(1564,114)"/>
<path d="M0 0 C2.31 0 4.62 0 7 0 C7.02684679 2.64590014 7.04676357 5.29153096 7.0625 7.9375 C7.07087891 8.69224609 7.07925781 9.44699219 7.08789062 10.22460938 C7.09652441 12.14994313 7.05224333 14.07535581 7 16 C6 17 6 17 3.95874023 17.11352539 C3.08419189 17.10828857 2.20964355 17.10305176 1.30859375 17.09765625 C0.36435547 17.09443359 -0.57988281 17.09121094 -1.55273438 17.08789062 C-3.04256836 17.07532227 -3.04256836 17.07532227 -4.5625 17.0625 C-5.55958984 17.05798828 -6.55667969 17.05347656 -7.58398438 17.04882812 C-10.05604849 17.03700007 -12.52799518 17.02051849 -15 17 C-15 19.97 -15 22.94 -15 26 C-16.32 26 -17.64 26 -19 26 C-19 22.04 -19 18.08 -19 14 C-12.73 14 -6.46 14 0 14 C0 10.7 0 7.4 0 4 C1.32 4 2.64 4 4 4 C4 7.63 4 11.26 4 15 C4.66 15 5.32 15 6 15 C6 10.71 6 6.42 6 2 C4.02 2 2.04 2 0 2 C0 1.34 0 0.68 0 0 Z " fill="#1A1A1C" transform="translate(389,30)"/>
<path d="M0 0 C0.33 0.99 0.66 1.98 1 3 C-3.62 3 -8.24 3 -13 3 C-13 12.24 -13 21.48 -13 31 C-17.62 31 -22.24 31 -27 31 C-27 40.24 -27 49.48 -27 59 C-29.36008817 55.45986775 -29.23463644 53.98878045 -29.1953125 49.80078125 C-29.18886719 48.59228516 -29.18242187 47.38378906 -29.17578125 46.13867188 C-29.15064453 44.2447168 -29.15064453 44.2447168 -29.125 42.3125 C-29.11597656 41.03826172 -29.10695313 39.76402344 -29.09765625 38.45117188 C-29.07405722 35.30070146 -29.03818579 32.15032738 -29 29 C-24.38 29 -19.76 29 -15 29 C-15 19.76 -15 10.52 -15 1 C-10.05 0.67 -5.1 0.34 0 0 Z " fill="#F5F5F5" transform="translate(483,59)"/>
<path d="M0 0 C0.33 0.66 0.66 1.32 1 2 C1.66 2 2.32 2 3 2 C3 20.48 3 38.96 3 58 C2.01 57.34 1.02 56.68 0 56 C-0.36076355 53.6335144 -0.36076355 53.6335144 -0.34057617 50.63232422 C-0.34034958 49.51131317 -0.34012299 48.39030212 -0.33988953 47.23532104 C-0.32440567 46.02071198 -0.30892181 44.80610291 -0.29296875 43.5546875 C-0.28872391 42.31453888 -0.28447906 41.07439026 -0.28010559 39.79666138 C-0.26613216 36.49864537 -0.23917361 33.2010665 -0.20599365 29.90319824 C-0.17531238 26.53838458 -0.16160446 23.17350696 -0.14648438 19.80859375 C-0.1133473 13.20555729 -0.06309697 6.60281442 0 0 Z " fill="#D6D6D7" transform="translate(636,112)"/>
<path d="M0 0 C0.33 0.66 0.66 1.32 1 2 C1.66 2 2.32 2 3 2 C3 20.48 3 38.96 3 58 C2.01 57.34 1.02 56.68 0 56 C-0.36076355 53.6335144 -0.36076355 53.6335144 -0.34057617 50.63232422 C-0.34034958 49.51131317 -0.34012299 48.39030212 -0.33988953 47.23532104 C-0.32440567 46.02071198 -0.30892181 44.80610291 -0.29296875 43.5546875 C-0.28872391 42.31453888 -0.28447906 41.07439026 -0.28010559 39.79666138 C-0.26613216 36.49864537 -0.23917361 33.2010665 -0.20599365 29.90319824 C-0.17531238 26.53838458 -0.16160446 23.17350696 -0.14648438 19.80859375 C-0.1133473 13.20555729 -0.06309697 6.60281442 0 0 Z " fill="#D6D6D7" transform="translate(163,112)"/>
<path d="M0 0 C0.33 0.66 0.66 1.32 1 2 C1.66 2 2.32 2 3 2 C3 11.24 3 20.48 3 30 C-1.95 30 -6.9 30 -12 30 C-12 34.95 -12 39.9 -12 45 C-12.66 45 -13.32 45 -14 45 C-14 39.39 -14 33.78 -14 28 C-9.38 28 -4.76 28 0 28 C0 18.76 0 9.52 0 0 Z " fill="#D6D6D6" transform="translate(1037,56)"/>
<path d="M0 0 C2.64 0 5.28 0 8 0 C8 9.9 8 19.8 8 30 C-1.9 30 -11.8 30 -22 30 C-22 24.72 -22 19.44 -22 14 C-21.67 14 -21.34 14 -21 14 C-21 18.62 -21 23.24 -21 28 C-12.09 28 -3.18 28 6 28 C6 19.42 6 10.84 6 2 C4.02 2 2.04 2 0 2 C0 1.34 0 0.68 0 0 Z " fill="#464647" transform="translate(1048,142)"/>
<path d="M0 0 C0.33 0 0.66 0 1 0 C2.25275164 22.66138237 2.10140011 45.31289521 2 68 C1.01 67.34 0.02 66.68 -1 66 C-1.2809982 63.08185299 -1.37127183 60.37910357 -1.328125 57.4609375 C-1.32661438 56.59525146 -1.32510376 55.72956543 -1.32354736 54.83764648 C-1.31416522 52.01645491 -1.28265624 49.19601035 -1.25 46.375 C-1.23811625 44.45394368 -1.22704885 42.53288213 -1.21679688 40.61181641 C-1.12360179 27.06012895 -0.78439158 13.53075478 0 0 Z " fill="#F1F1F1" transform="translate(236,102)"/>
<path d="M0 0 C1.32 0 2.64 0 4 0 C4.33 7.92 4.66 15.84 5 24 C0.71 24 -3.58 24 -8 24 C-8 33.24 -8 42.48 -8 52 C-8.99 51.34 -9.98 50.68 -11 50 C-11.34057617 47.20263672 -11.34057617 47.20263672 -11.29296875 43.6796875 C-11.28330078 42.42285156 -11.27363281 41.16601562 -11.26367188 39.87109375 C-11.23853516 38.55238281 -11.21339844 37.23367187 -11.1875 35.875 C-11.17245483 34.53517097 -11.15876613 33.19532596 -11.14648438 31.85546875 C-11.1110312 28.57014094 -11.05722294 25.28502075 -11 22 C-6.38 22 -1.76 22 3 22 C3 15.07 3 8.14 3 1 C2.01 0.67 1.02 0.34 0 0 Z " fill="#CCCCCC" transform="translate(475,34)"/>
<path d="M0 0 C0.33 0 0.66 0 1 0 C1 11.55 1 23.1 1 35 C-3.62 35 -8.24 35 -13 35 C-13 43.91 -13 52.82 -13 62 C-13.33 62 -13.66 62 -14 62 C-14 52.76 -14 43.52 -14 34 C-9.38 34 -4.76 34 0 34 C-0.66 33.34 -1.32 32.68 -2 32 C-2.25878906 29.05078125 -2.25878906 29.05078125 -2.265625 25.3125 C-2.26753845 24.65419189 -2.2694519 23.99588379 -2.27142334 23.31762695 C-2.2727845 21.9256146 -2.26909283 20.53358953 -2.26074219 19.14160156 C-2.250041 17.00817411 -2.26063906 14.87558869 -2.2734375 12.7421875 C-2.27211589 11.39062314 -2.26955347 10.0390593 -2.265625 8.6875 C-2.26336914 7.45386719 -2.26111328 6.22023438 -2.25878906 4.94921875 C-2 2 -2 2 0 0 Z " fill="#BABABB" transform="translate(484,28)"/>
<path d="M0 0 C0.33 0 0.66 0 1 0 C1 13.53 1 27.06 1 41 C0.01 41 -0.98 41 -2 41 C-2 28.46 -2 15.92 -2 3 C-1.34 3 -0.68 3 0 3 C0 2.01 0 1.02 0 0 Z " fill="#D6D6D6" transform="translate(638,32)"/>
<path d="M0 0 C0.33 0 0.66 0 1 0 C1.92603827 18.34836467 2.12363999 36.63470613 2 55 C1.01 55 0.02 55 -1 55 C-1.11824227 36.63424694 -0.98420283 18.34648311 0 0 Z " fill="#D9D9D9" transform="translate(322,74)"/>
<path d="M0 0 C0.66 0 1.32 0 2 0 C2 14.19 2 28.38 2 43 C1.01 42.34 0.02 41.68 -1 41 C-1.27897038 37.96094254 -1.37167364 35.12842703 -1.328125 32.08984375 C-1.32625183 31.20720352 -1.32437866 30.32456329 -1.32244873 29.41517639 C-1.31572096 27.54814887 -1.30179213 25.68113562 -1.28125 23.81420898 C-1.25008874 20.94566863 -1.24028019 18.07767719 -1.234375 15.20898438 C-1.22520566 13.39843075 -1.21483011 11.58788275 -1.203125 9.77734375 C-1.19887512 8.91382797 -1.19462524 8.05031219 -1.19024658 7.16062927 C-1.11714689 1.11714689 -1.11714689 1.11714689 0 0 Z " fill="#EFEFEF" transform="translate(1153,127)"/>
<path d="M0 0 C0.66 0 1.32 0 2 0 C2 14.19 2 28.38 2 43 C1.01 42.34 0.02 41.68 -1 41 C-1.27897038 37.96094254 -1.37167364 35.12842703 -1.328125 32.08984375 C-1.32625183 31.20720352 -1.32437866 30.32456329 -1.32244873 29.41517639 C-1.31572096 27.54814887 -1.30179213 25.68113562 -1.28125 23.81420898 C-1.25008874 20.94566863 -1.24028019 18.07767719 -1.234375 15.20898438 C-1.22520566 13.39843075 -1.21483011 11.58788275 -1.203125 9.77734375 C-1.19887512 8.91382797 -1.19462524 8.05031219 -1.19024658 7.16062927 C-1.11714689 1.11714689 -1.11714689 1.11714689 0 0 Z " fill="#EFEFEF" transform="translate(981,127)"/>
<path d="M0 0 C0.33 0.99 0.66 1.98 1 3 C-3.29 3 -7.58 3 -12 3 C-12 12.24 -12 21.48 -12 31 C-12.99 30.34 -13.98 29.68 -15 29 C-15.34057617 26.20263672 -15.34057617 26.20263672 -15.29296875 22.6796875 C-15.28330078 21.42285156 -15.27363281 20.16601562 -15.26367188 18.87109375 C-15.23853516 17.55238281 -15.21339844 16.23367187 -15.1875 14.875 C-15.17245483 13.53517097 -15.15876613 12.19532596 -15.14648438 10.85546875 C-15.1110312 7.57014094 -15.05722294 4.28502075 -15 1 C-10.05 0.67 -5.1 0.34 0 0 Z " fill="#DFDFDF" transform="translate(1353,139)"/>
<path d="M0 0 C12.21 0 24.42 0 37 0 C37 0.66 37 1.32 37 2 C25.45 2 13.9 2 2 2 C2 6.29 2 10.58 2 15 C2.66 15.33 3.32 15.66 4 16 C2.125 16.625 2.125 16.625 0 17 C-0.66 16.34 -1.32 15.68 -2 15 C-1.34 15 -0.68 15 0 15 C0 10.05 0 5.1 0 0 Z " fill="#464648" transform="translate(1154,58)"/>
<path d="M0 0 C0.66 0 1.32 0 2 0 C2 4.62 2 9.24 2 14 C13.22 14 24.44 14 36 14 C36 14.66 36 15.32 36 16 C24.12 16 12.24 16 0 16 C0 10.72 0 5.44 0 0 Z " fill="#444446" transform="translate(1627,44)"/>
<path d="M0 0 C0.33 0 0.66 0 1 0 C1 13.53 1 27.06 1 41 C0.01 41 -0.98 41 -2 41 C-2.02465746 36.8882744 -2.04283959 32.77657722 -2.05493164 28.66479492 C-2.0599708 27.26504772 -2.06680216 25.8653058 -2.07543945 24.46557617 C-2.0875232 22.45754223 -2.09269807 20.44947043 -2.09765625 18.44140625 C-2.10289307 17.23170166 -2.10812988 16.02199707 -2.11352539 14.77563477 C-2 12 -2 12 -1 11 C-0.76636119 9.15108054 -0.58696365 7.29511969 -0.4375 5.4375 C-0.35371094 4.42558594 -0.26992188 3.41367187 -0.18359375 2.37109375 C-0.12300781 1.58863281 -0.06242188 0.80617187 0 0 Z " fill="#C8C8C9" transform="translate(982,32)"/>
<path d="M0 0 C4.62 0 9.24 0 14 0 C14 0.33 14 0.66 14 1 C8.06 1.495 8.06 1.495 2 2 C2 11.24 2 20.48 2 30 C-2.62 30 -7.24 30 -12 30 C-12.66 29.34 -13.32 28.68 -14 28 C-9.38 28 -4.76 28 0 28 C0 18.76 0 9.52 0 0 Z " fill="#545456" transform="translate(452,86)"/>
<path d="M0 0 C0.33 0 0.66 0 1 0 C1 11.22 1 22.44 1 34 C0.01 33.34 -0.98 32.68 -2 32 C-2.37231445 29.05078125 -2.37231445 29.05078125 -2.36328125 25.3125 C-2.36377975 24.65419189 -2.36427826 23.99588379 -2.36479187 23.31762695 C-2.36245104 21.92558779 -2.3527218 20.53354443 -2.33618164 19.14160156 C-2.31258934 17.0080795 -2.3156196 14.87580681 -2.32226562 12.7421875 C-2.27909311 2.27909311 -2.27909311 2.27909311 0 0 Z " fill="#D6D6D6" transform="translate(828,140)"/>
<path d="M0 0 C0.33 0 0.66 0 1 0 C1 11.22 1 22.44 1 34 C0.01 33.34 -0.98 32.68 -2 32 C-2.37231445 29.05078125 -2.37231445 29.05078125 -2.36328125 25.3125 C-2.36377975 24.65419189 -2.36427826 23.99588379 -2.36479187 23.31762695 C-2.36245104 21.92558779 -2.3527218 20.53354443 -2.33618164 19.14160156 C-2.31258934 17.0080795 -2.3156196 14.87580681 -2.32226562 12.7421875 C-2.27909311 2.27909311 -2.27909311 2.27909311 0 0 Z " fill="#D6D6D6" transform="translate(398,140)"/>
<path d="M0 0 C0.33 0 0.66 0 1 0 C1 11.22 1 22.44 1 34 C0.01 33.34 -0.98 32.68 -2 32 C-2.37231445 29.05078125 -2.37231445 29.05078125 -2.36328125 25.3125 C-2.36377975 24.65419189 -2.36427826 23.99588379 -2.36479187 23.31762695 C-2.36245104 21.92558779 -2.3527218 20.53354443 -2.33618164 19.14160156 C-2.31258934 17.0080795 -2.3156196 14.87580681 -2.32226562 12.7421875 C-2.27909311 2.27909311 -2.27909311 2.27909311 0 0 Z " fill="#D6D6D6" transform="translate(1444,84)"/>
<path d="M0 0 C0.33 0 0.66 0 1 0 C1 11.22 1 22.44 1 34 C0.01 33.34 -0.98 32.68 -2 32 C-2.37231445 29.05078125 -2.37231445 29.05078125 -2.36328125 25.3125 C-2.36377975 24.65419189 -2.36427826 23.99588379 -2.36479187 23.31762695 C-2.36245104 21.92558779 -2.3527218 20.53354443 -2.33618164 19.14160156 C-2.31258934 17.0080795 -2.3156196 14.87580681 -2.32226562 12.7421875 C-2.27909311 2.27909311 -2.27909311 2.27909311 0 0 Z " fill="#D6D6D6" transform="translate(1745,28)"/>
<path d="M0 0 C0.33 0 0.66 0 1 0 C1 11.22 1 22.44 1 34 C0.01 33.34 -0.98 32.68 -2 32 C-2.37231445 29.05078125 -2.37231445 29.05078125 -2.36328125 25.3125 C-2.36377975 24.65419189 -2.36427826 23.99588379 -2.36479187 23.31762695 C-2.36245104 21.92558779 -2.3527218 20.53354443 -2.33618164 19.14160156 C-2.31258934 17.0080795 -2.3156196 14.87580681 -2.32226562 12.7421875 C-2.27909311 2.27909311 -2.27909311 2.27909311 0 0 Z " fill="#D6D6D6" transform="translate(828,28)"/>
<path d="M0 0 C0.66 0 1.32 0 2 0 C2 4.62 2 9.24 2 14 C10.91 14 19.82 14 29 14 C29.33 14.66 29.66 15.32 30 16 C20.1 16 10.2 16 0 16 C0 10.72 0 5.44 0 0 Z " fill="#454546" transform="translate(1670,156)"/>
<path d="M0 0 C0.66 0 1.32 0 2 0 C2 4.62 2 9.24 2 14 C10.91 14 19.82 14 29 14 C29 14.66 29 15.32 29 16 C19.43 16 9.86 16 0 16 C0 10.72 0 5.44 0 0 Z " fill="#454547" transform="translate(137,156)"/>
<path d="M0 0 C0.33 0 0.66 0 1 0 C1 11.22 1 22.44 1 34 C0.01 33.34 -0.98 32.68 -2 32 C-2.25460763 29.29024739 -2.32732889 26.82888489 -2.25 24.125 C-2.23831787 23.36429199 -2.22663574 22.60358398 -2.21459961 21.81982422 C-1.88996966 5.66990897 -1.88996966 5.66990897 0 0 Z " fill="#C5C5C5" transform="translate(599,140)"/>
<path d="M0 0 C0.33 0 0.66 0 1 0 C1 12.87 1 25.74 1 39 C0.01 38.67 -0.98 38.34 -2 38 C-2.02886537 33.68751391 -2.04675255 29.37505238 -2.0625 25.0625 C-2.07087891 23.83080078 -2.07925781 22.59910156 -2.08789062 21.33007812 C-2.09111328 20.16025391 -2.09433594 18.99042969 -2.09765625 17.78515625 C-2.10289307 16.70113525 -2.10812988 15.61711426 -2.11352539 14.50024414 C-2 12 -2 12 -1 11 C-0.76636119 9.15108054 -0.58696365 7.29511969 -0.4375 5.4375 C-0.35371094 4.42558594 -0.26992187 3.41367187 -0.18359375 2.37109375 C-0.12300781 1.58863281 -0.06242188 0.80617187 0 0 Z " fill="#B6B6B7" transform="translate(237,60)"/>
<path d="M0 0 C0.33 0 0.66 0 1 0 C1 12.87 1 25.74 1 39 C0.01 38.67 -0.98 38.34 -2 38 C-2.02886537 33.68751391 -2.04675255 29.37505238 -2.0625 25.0625 C-2.07087891 23.83080078 -2.07925781 22.59910156 -2.08789062 21.33007812 C-2.09111328 20.16025391 -2.09433594 18.99042969 -2.09765625 17.78515625 C-2.10289307 16.70113525 -2.10812988 15.61711426 -2.11352539 14.50024414 C-2 12 -2 12 -1 11 C-0.76636119 9.15108054 -0.58696365 7.29511969 -0.4375 5.4375 C-0.35371094 4.42558594 -0.26992188 3.41367187 -0.18359375 2.37109375 C-0.12300781 1.58863281 -0.06242187 0.80617187 0 0 Z " fill="#B6B6B7" transform="translate(323,32)"/>
<path d="M0 0 C0.33 0 0.66 0 1 0 C1 12.87 1 25.74 1 39 C0.01 38.67 -0.98 38.34 -2 38 C-2.02886537 33.68751391 -2.04675255 29.37505238 -2.0625 25.0625 C-2.07087891 23.83080078 -2.07925781 22.59910156 -2.08789062 21.33007812 C-2.09111328 20.16025391 -2.09433594 18.99042969 -2.09765625 17.78515625 C-2.10289307 16.70113525 -2.10812988 15.61711426 -2.11352539 14.50024414 C-2 12 -2 12 -1 11 C-0.76636119 9.15108054 -0.58696365 7.29511969 -0.4375 5.4375 C-0.35371094 4.42558594 -0.26992188 3.41367187 -0.18359375 2.37109375 C-0.12300781 1.58863281 -0.06242187 0.80617187 0 0 Z " fill="#B6B6B7" transform="translate(280,32)"/>
<path d="M0 0 C0.33 0 0.66 0 1 0 C1 8.58 1 17.16 1 26 C0.01 25.34 -0.98 24.68 -2 24 C-2.34057617 21.84521484 -2.34057617 21.84521484 -2.29296875 19.2109375 C-2.2784668 17.79941406 -2.2784668 17.79941406 -2.26367188 16.359375 C-2.23853516 15.37453125 -2.21339844 14.3896875 -2.1875 13.375 C-2.17396484 12.38242188 -2.16042969 11.38984375 -2.14648438 10.3671875 C-2.11105743 7.91091928 -2.06166196 5.45572715 -2 3 C-1.34 3 -0.68 3 0 3 C0 2.01 0 1.02 0 0 Z " fill="#D6D6D7" transform="translate(1469,144)"/>
<path d="M0 0 C0.33 0 0.66 0 1 0 C1 8.58 1 17.16 1 26 C0.01 25.34 -0.98 24.68 -2 24 C-2.34057617 21.84521484 -2.34057617 21.84521484 -2.29296875 19.2109375 C-2.2784668 17.79941406 -2.2784668 17.79941406 -2.26367188 16.359375 C-2.23853516 15.37453125 -2.21339844 14.3896875 -2.1875 13.375 C-2.17396484 12.38242188 -2.16042969 11.38984375 -2.14648438 10.3671875 C-2.11105743 7.91091928 -2.06166196 5.45572715 -2 3 C-1.34 3 -0.68 3 0 3 C0 2.01 0 1.02 0 0 Z " fill="#D6D6D7" transform="translate(595,144)"/>
<path d="M0 0 C0.33 0 0.66 0 1 0 C1 8.58 1 17.16 1 26 C0.01 25.34 -0.98 24.68 -2 24 C-2.34057617 21.84521484 -2.34057617 21.84521484 -2.29296875 19.2109375 C-2.2784668 17.79941406 -2.2784668 17.79941406 -2.26367188 16.359375 C-2.23853516 15.37453125 -2.21339844 14.3896875 -2.1875 13.375 C-2.17396484 12.38242187 -2.16042969 11.38984375 -2.14648438 10.3671875 C-2.11105743 7.91091928 -2.06166196 5.45572715 -2 3 C-1.34 3 -0.68 3 0 3 C0 2.01 0 1.02 0 0 Z " fill="#D6D6D7" transform="translate(1469,32)"/>
<path d="M0 0 C0.33 0 0.66 0 1 0 C1 8.58 1 17.16 1 26 C0.01 25.34 -0.98 24.68 -2 24 C-2.34057617 21.84521484 -2.34057617 21.84521484 -2.29296875 19.2109375 C-2.2784668 17.79941406 -2.2784668 17.79941406 -2.26367188 16.359375 C-2.23853516 15.37453125 -2.21339844 14.3896875 -2.1875 13.375 C-2.17396484 12.38242187 -2.16042969 11.38984375 -2.14648438 10.3671875 C-2.11105743 7.91091928 -2.06166196 5.45572715 -2 3 C-1.34 3 -0.68 3 0 3 C0 2.01 0 1.02 0 0 Z " fill="#D6D6D7" transform="translate(1340,32)"/>
<path d="M0 0 C0.33 0 0.66 0 1 0 C1 8.58 1 17.16 1 26 C0.01 25.34 -0.98 24.68 -2 24 C-2.34057617 21.84521484 -2.34057617 21.84521484 -2.29296875 19.2109375 C-2.2784668 17.79941406 -2.2784668 17.79941406 -2.26367188 16.359375 C-2.23853516 15.37453125 -2.21339844 14.3896875 -2.1875 13.375 C-2.17396484 12.38242187 -2.16042969 11.38984375 -2.14648438 10.3671875 C-2.11105743 7.91091928 -2.06166196 5.45572715 -2 3 C-1.34 3 -0.68 3 0 3 C0 2.01 0 1.02 0 0 Z " fill="#D6D6D7" transform="translate(595,32)"/>
<path d="M0 0 C4.95 0 9.9 0 15 0 C15 0.66 15 1.32 15 2 C10.71 2 6.42 2 2 2 C2 6.29 2 10.58 2 15 C2.66 15.33 3.32 15.66 4 16 C2.125 16.625 2.125 16.625 0 17 C-0.66 16.34 -1.32 15.68 -2 15 C-1.34 15 -0.68 15 0 15 C0 10.05 0 5.1 0 0 Z " fill="#48484A" transform="translate(1025,86)"/>
<path d="M0 0 C0.33 0.99 0.66 1.98 1 3 C-3.62 3 -8.24 3 -13 3 C-13 7.95 -13 12.9 -13 18 C-13.66 18 -14.32 18 -15 18 C-15 12.39 -15 6.78 -15 1 C-10.05 0.67 -5.1 0.34 0 0 Z " fill="#F3F3F3" transform="translate(1038,83)"/>
<path d="M0 0 C0.66 0 1.32 0 2 0 C2 9.24 2 18.48 2 28 C1.01 27.67 0.02 27.34 -1 27 C-1.02886537 22.68751391 -1.04675255 18.37505238 -1.0625 14.0625 C-1.07087891 12.83080078 -1.07925781 11.59910156 -1.08789062 10.33007812 C-1.09111328 9.16025391 -1.09433594 7.99042969 -1.09765625 6.78515625 C-1.10289307 5.70113525 -1.10812988 4.61711426 -1.11352539 3.50024414 C-1 1 -1 1 0 0 Z " fill="#BEBEBF" transform="translate(279,99)"/>
<path d="M0 0 C0.33 0 0.66 0 1 0 C1 13.53 1 27.06 1 41 C0.01 40.34 -0.98 39.68 -2 39 C-2.328125 36.21484375 -2.328125 36.21484375 -2.25 32.9375 C-2.23453125 31.85339844 -2.2190625 30.76929688 -2.203125 29.65234375 C-2 27 -2 27 -1 26 C-0.84193469 24.07521187 -0.748865 22.1450079 -0.68359375 20.21484375 C-0.64169922 19.04501953 -0.59980469 17.87519531 -0.55664062 16.66992188 C-0.49766602 14.82237305 -0.49766602 14.82237305 -0.4375 12.9375 C-0.39431641 11.70193359 -0.35113281 10.46636719 -0.30664062 9.19335938 C-0.20015802 6.12902665 -0.09814576 3.06460927 0 0 Z " fill="#A8A8A9" transform="translate(1154,129)"/>
<path d="M0 0 C0.33 0 0.66 0 1 0 C1 13.53 1 27.06 1 41 C0.01 40.34 -0.98 39.68 -2 39 C-2.328125 36.21484375 -2.328125 36.21484375 -2.25 32.9375 C-2.23453125 31.85339844 -2.2190625 30.76929688 -2.203125 29.65234375 C-2 27 -2 27 -1 26 C-0.84193469 24.07521187 -0.748865 22.1450079 -0.68359375 20.21484375 C-0.64169922 19.04501953 -0.59980469 17.87519531 -0.55664062 16.66992188 C-0.49766602 14.82237305 -0.49766602 14.82237305 -0.4375 12.9375 C-0.39431641 11.70193359 -0.35113281 10.46636719 -0.30664062 9.19335938 C-0.20015802 6.12902665 -0.09814576 3.06460927 0 0 Z " fill="#A8A8A9" transform="translate(982,129)"/>
<path d="M0 0 C0.33 0 0.66 0 1 0 C1 13.53 1 27.06 1 41 C0.01 40.34 -0.98 39.68 -2 39 C-2.328125 36.21484375 -2.328125 36.21484375 -2.25 32.9375 C-2.23453125 31.85339844 -2.2190625 30.76929688 -2.203125 29.65234375 C-2 27 -2 27 -1 26 C-0.84193469 24.07521187 -0.748865 22.1450079 -0.68359375 20.21484375 C-0.64169922 19.04501953 -0.59980469 17.87519531 -0.55664062 16.66992188 C-0.49766602 14.82237305 -0.49766602 14.82237305 -0.4375 12.9375 C-0.39431641 11.70193359 -0.35113281 10.46636719 -0.30664062 9.19335938 C-0.20015802 6.12902665 -0.09814576 3.06460927 0 0 Z " fill="#A8A8A9" transform="translate(280,129)"/>
<path d="M0 0 C0.33 0 0.66 0 1 0 C1 13.53 1 27.06 1 41 C0.01 40.34 -0.98 39.68 -2 39 C-2.328125 36.21484375 -2.328125 36.21484375 -2.25 32.9375 C-2.23453125 31.85339844 -2.2190625 30.76929688 -2.203125 29.65234375 C-2 27 -2 27 -1 26 C-0.84193469 24.07521187 -0.748865 22.1450079 -0.68359375 20.21484375 C-0.64169922 19.04501953 -0.59980469 17.87519531 -0.55664062 16.66992188 C-0.49766602 14.82237305 -0.49766602 14.82237305 -0.4375 12.9375 C-0.39431641 11.70193359 -0.35113281 10.46636719 -0.30664062 9.19335938 C-0.20015802 6.12902665 -0.09814576 3.06460927 0 0 Z " fill="#A8A8A9" transform="translate(237,129)"/>
<path d="M0 0 C4.62 0 9.24 0 14 0 C14 0.33 14 0.66 14 1 C9.71 1 5.42 1 1 1 C1 9.91 1 18.82 1 28 C0.01 27.34 -0.98 26.68 -2 26 C-2.328125 23.21484375 -2.328125 23.21484375 -2.25 19.9375 C-2.23453125 18.85339844 -2.2190625 17.76929688 -2.203125 16.65234375 C-2 14 -2 14 -1 13 C-0.76518307 10.81707226 -0.58636677 8.62796826 -0.4375 6.4375 C-0.293125 4.313125 -0.14875 2.18875 0 0 Z " fill="#A0A0A1" transform="translate(108,142)"/>
<path d="M0 0 C2.64 0 5.28 0 8 0 C8 4.95 8 9.9 8 15 C8.66 15.33 9.32 15.66 10 16 C8.35 16.33 6.7 16.66 5 17 C4.67 16.34 4.34 15.68 4 15 C4.66 15 5.32 15 6 15 C6 10.71 6 6.42 6 2 C4.02 2 2.04 2 0 2 C0 1.34 0 0.68 0 0 Z " fill="#4E4E50" transform="translate(1535,58)"/>
<path d="M0 0 C2.64 0 5.28 0 8 0 C8 4.95 8 9.9 8 15 C8.66 15.33 9.32 15.66 10 16 C8.125 16.625 8.125 16.625 6 17 C5.34 16.34 4.68 15.68 4 15 C4.66 15 5.32 15 6 15 C6 10.71 6 6.42 6 2 C4.02 2 2.04 2 0 2 C0 1.34 0 0.68 0 0 Z " fill="#4A4A4B" transform="translate(403,58)"/>
<path d="M0 0 C2.31 0 4.62 0 7 0 C7 4.95 7 9.9 7 15 C7.66 15.33 8.32 15.66 9 16 C7.125 16.625 7.125 16.625 5 17 C4.34 16.34 3.68 15.68 3 15 C3.66 15 4.32 15 5 15 C5 10.71 5 6.42 5 2 C3.35 2 1.7 2 0 2 C0 1.34 0 0.68 0 0 Z " fill="#484849" transform="translate(103,30)"/>
<path d="M0 0 C0.66 0 1.32 0 2 0 C2 4.62 2 9.24 2 14 C3.98 14 5.96 14 8 14 C8 14.66 8 15.32 8 16 C5.36 16 2.72 16 0 16 C0 10.72 0 5.44 0 0 Z " fill="#4D4D4F" transform="translate(1541,128)"/>
<path d="M0 0 C0.66 0 1.32 0 2 0 C2 4.62 2 9.24 2 14 C3.98 14 5.96 14 8 14 C8 14.66 8 15.32 8 16 C5.36 16 2.72 16 0 16 C0 10.72 0 5.44 0 0 Z " fill="#4F4F50" transform="translate(1240,128)"/>
<path d="M0 0 C0.66 0 1.32 0 2 0 C2 4.62 2 9.24 2 14 C3.98 14 5.96 14 8 14 C8 14.66 8 15.32 8 16 C5.36 16 2.72 16 0 16 C0 10.72 0 5.44 0 0 Z " fill="#505052" transform="translate(839,128)"/>
<path d="M0 0 C0.66 0 1.32 0 2 0 C2 4.62 2 9.24 2 14 C3.98 14 5.96 14 8 14 C8 14.66 8 15.32 8 16 C5.36 16 2.72 16 0 16 C0 10.72 0 5.44 0 0 Z " fill="#4D4D4F" transform="translate(495,128)"/>
<path d="M0 0 C0.66 0 1.32 0 2 0 C2 4.62 2 9.24 2 14 C3.98 14 5.96 14 8 14 C8 14.66 8 15.32 8 16 C5.36 16 2.72 16 0 16 C0 10.72 0 5.44 0 0 Z " fill="#4F4F50" transform="translate(366,44)"/>
<path d="M0 0 C0.33 0 0.66 0 1 0 C1 8.58 1 17.16 1 26 C0.01 25.34 -0.98 24.68 -2 24 C-2.328125 21.21484375 -2.328125 21.21484375 -2.25 17.9375 C-2.23453125 16.85339844 -2.2190625 15.76929688 -2.203125 14.65234375 C-2 12 -2 12 -1 11 C-0.76636119 9.15108054 -0.58696365 7.29511969 -0.4375 5.4375 C-0.35371094 4.42558594 -0.26992188 3.41367188 -0.18359375 2.37109375 C-0.12300781 1.58863281 -0.06242188 0.80617187 0 0 Z " fill="#B3B3B3" transform="translate(939,144)"/>
<path d="M0 0 C0.33 0 0.66 0 1 0 C1 8.58 1 17.16 1 26 C0.01 25.34 -0.98 24.68 -2 24 C-2.328125 21.21484375 -2.328125 21.21484375 -2.25 17.9375 C-2.23453125 16.85339844 -2.2190625 15.76929688 -2.203125 14.65234375 C-2 12 -2 12 -1 11 C-0.76636119 9.15108054 -0.58696365 7.29511969 -0.4375 5.4375 C-0.35371094 4.42558594 -0.26992188 3.41367187 -0.18359375 2.37109375 C-0.12300781 1.58863281 -0.06242188 0.80617187 0 0 Z " fill="#B3B3B3" transform="translate(939,32)"/>
</svg>
